STARTFONT 2.1
FONT -DEC-Terminal-Bold-R-Normal--39-280-100-100-C-220-iso8859-4
SIZE 28 100 100
FONTBOUNDINGBOX 22 40 0 -10

STARTPROPERTIES 24
FOUNDRY "Monotype"
FAMILY_NAME "VT"
WEIGHT_NAME "Bold"
SLANT "R"
SETWIDTH_NAME "Normal"
ADD_STYLE_NAME ""
PIXEL_SIZE 39
POINT_SIZE 280
RESOLUTION_X 100
RESOLUTION_Y 100
SPACING "C"
AVERAGE_WIDTH 220
CHARSET_REGISTRY "iso8859"
CHARSET_ENCODING "4"
FACE_NAME "VT Bold ISO Latin4"
_DEC_DEVICE_FONTNAMES "PS=vt-bold-isolatin4"
COPYRIGHT "Copyright (c) 1993 Monotype Typography Ltd."
CAP_HEIGHT 22
X_HEIGHT 17
WEIGHT 10
QUAD_WIDTH 22
DEFAULT_CHAR 160
FONT_DESCENT 10
FONT_ASCENT 30
ENDPROPERTIES

CHARS 191

STARTCHAR space
ENCODING 32
SWIDTH 568 0
DWIDTH 22 0
BBX 22 40 0 -10
BITMAP
000000
000000
000000
000000
000000
000000
000000
000000
000000
000000
000000
000000
000000
000000
000000
000000
000000
000000
000000
000000
000000
000000
000000
000000
000000
000000
000000
000000
000000
000000
000000
000000
000000
000000
000000
000000
000000
000000
000000
000000
ENDCHAR

STARTCHAR exclam
ENCODING 33
SWIDTH 568 0
DWIDTH 22 0
BBX 22 40 0 -10
BITMAP
000000
000000
000000
000000
000000
000000
000000
000000
00FC00
00FC00
00FC00
00FC00
00FC00
00FC00
00FC00
00FC00
00FC00
00FC00
00FC00
00FC00
00FC00
00FC00
000000
000000
00FC00
01FE00
03FF00
03FF00
01FE00
00FC00
000000
000000
000000
000000
000000
000000
000000
000000
000000
000000
ENDCHAR

STARTCHAR quotedbl
ENCODING 34
SWIDTH 568 0
DWIDTH 22 0
BBX 22 40 0 -10
BITMAP
000000
000000
000000
000000
03C3C0
03C3C0
03C3C0
03C3C0
03C3C0
03C3C0
03C3C0
03C3C0
03C3C0
03C3C0
000000
000000
000000
000000
000000
000000
000000
000000
000000
000000
000000
000000
000000
000000
000000
000000
000000
000000
000000
000000
000000
000000
000000
000000
000000
000000
ENDCHAR

STARTCHAR numbersign
ENCODING 35
SWIDTH 568 0
DWIDTH 22 0
BBX 22 40 0 -10
BITMAP
000000
000000
000000
000000
000000
000000
000000
000000
0FC3F0
0FC3F0
0FC3F0
0FC3F0
0FC3F0
0FC3F0
0FC3F0
0FC3F0
FFFFFC
FFFFFC
FFFFFC
FFFFFC
3F0FC0
3F0FC0
3F0FC0
3F0FC0
FFFFFC
FFFFFC
FFFFFC
FFFFFC
3F0FC0
3F0FC0
3F0FC0
3F0FC0
3F0FC0
3F0FC0
3F0FC0
3F0FC0
000000
000000
000000
000000
ENDCHAR

STARTCHAR dollar
ENCODING 36
SWIDTH 568 0
DWIDTH 22 0
BBX 22 40 0 -10
BITMAP
000000
000000
000000
000000
003C00
003C00
003C00
003C00
03FCF0
0FFEF0
1FFFF0
1FFFF0
3F01F0
3F00F0
3F00F0
3F00F0
1F8000
1FFC00
0FFF80
03FFE0
003FE0
0003F0
3C03F0
3C03F0
3E03F0
3F03F0
3FFFE0
3FFFE0
3DFFC0
3CFF00
00F000
00F000
00F000
00F000
00F000
00F000
000000
000000
000000
000000
ENDCHAR

STARTCHAR percent
ENCODING 37
SWIDTH 568 0
DWIDTH 22 0
BBX 22 40 0 -10
BITMAP
000000
000000
000000
000000
000000
000000
000000
000000
1FE000
3FF000
7FF800
7CF800
787800
787800
7CF870
7FF9F0
3FF7C0
1FFF00
003C00
00F000
03FFE0
0FBFF0
3E7FF8
387CF8
007878
007878
007CF8
007FF8
003FF0
001FE0
000000
000000
000000
000000
000000
000000
000000
000000
000000
000000
ENDCHAR

STARTCHAR ampersand
ENCODING 38
SWIDTH 568 0
DWIDTH 22 0
BBX 22 40 0 -10
BITMAP
000000
000000
000000
000000
000000
000000
000000
000000
01FCC0
07FEC0
07FFC0
0FFFC0
0FC3C0
0FC3C0
07C000
07C000
03E0F0
03E0F0
0FF0F0
1FF8F0
1F78E0
3E3CE0
3E3FE0
3E1FC0
3E0FC0
3F0FC0
1FFFF0
1FFFF0
0FFCF0
03F8F0
000000
000000
000000
000000
000000
000000
000000
000000
000000
000000
ENDCHAR

STARTCHAR quoteright
ENCODING 39
SWIDTH 568 0
DWIDTH 22 0
BBX 22 40 0 -10
BITMAP
000000
000000
000000
000000
00FF00
00FE00
00FC00
01FC00
01F800
01F000
03F000
03E000
03C000
07C000
000000
000000
000000
000000
000000
000000
000000
000000
000000
000000
000000
000000
000000
000000
000000
000000
000000
000000
000000
000000
000000
000000
000000
000000
000000
000000
ENDCHAR

STARTCHAR parenleft
ENCODING 40
SWIDTH 568 0
DWIDTH 22 0
BBX 22 40 0 -10
BITMAP
000000
000000
001E00
001C00
003C00
003C00
00F800
00F800
01F000
01F000
03F000
03E000
03E000
07E000
07E000
07E000
07E000
07E000
07E000
07E000
07E000
07E000
07E000
03E000
03E000
03F000
01F000
01F000
00F800
00F800
003C00
003C00
000E00
000F00
000000
000000
000000
000000
000000
000000
ENDCHAR

STARTCHAR parenright
ENCODING 41
SWIDTH 568 0
DWIDTH 22 0
BBX 22 40 0 -10
BITMAP
000000
000000
078000
038000
01E000
01E000
00F800
00F800
007C00
007C00
007E00
003E00
003E00
003F00
003F00
003F00
003F00
003F00
003F00
003F00
003F00
003F00
003F00
003E00
003E00
007E00
007C00
007C00
00F800
00F800
01E000
01E000
01C000
03C000
000000
000000
000000
000000
000000
000000
ENDCHAR

STARTCHAR asterisk
ENCODING 42
SWIDTH 568 0
DWIDTH 22 0
BBX 22 40 0 -10
BITMAP
000000
000000
000000
000000
000000
000000
000000
000000
000000
000000
000000
000000
00FC00
00FC00
00FC00
00FC00
3CFC70
3FFDF0
3FFFF0
0FFFC0
03FF00
03FF00
07CF80
0F87C0
0F03C0
1F03E0
000000
000000
000000
000000
000000
000000
000000
000000
000000
000000
000000
000000
000000
000000
ENDCHAR

STARTCHAR plus
ENCODING 43
SWIDTH 568 0
DWIDTH 22 0
BBX 22 40 0 -10
BITMAP
000000
000000
000000
000000
000000
000000
000000
000000
000000
000000
00FC00
00FC00
00FC00
00FC00
00FC00
00FC00
00FC00
00FC00
3FFFF0
3FFFF0
3FFFF0
3FFFF0
00FC00
00FC00
00FC00
00FC00
00FC00
00FC00
00FC00
00FC00
000000
000000
000000
000000
000000
000000
000000
000000
000000
000000
ENDCHAR

STARTCHAR comma
ENCODING 44
SWIDTH 568 0
DWIDTH 22 0
BBX 22 40 0 -10
BITMAP
000000
000000
000000
000000
000000
000000
000000
000000
000000
000000
000000
000000
000000
000000
000000
000000
000000
000000
000000
000000
000000
000000
000000
000000
00FF00
00FE00
00FE00
00FC00
01FC00
01F800
01F800
01F000
03F000
03E000
03E000
07C000
000000
000000
000000
000000
ENDCHAR

STARTCHAR minus
ENCODING 45
SWIDTH 568 0
DWIDTH 22 0
BBX 22 40 0 -10
BITMAP
000000
000000
000000
000000
000000
000000
000000
000000
000000
000000
000000
000000
000000
000000
000000
000000
000000
000000
000000
000000
3FFFF0
3FFFF0
3FFFF0
3FFFF0
000000
000000
000000
000000
000000
000000
000000
000000
000000
000000
000000
000000
000000
000000
000000
000000
ENDCHAR

STARTCHAR period
ENCODING 46
SWIDTH 568 0
DWIDTH 22 0
BBX 22 40 0 -10
BITMAP
000000
000000
000000
000000
000000
000000
000000
000000
000000
000000
000000
000000
000000
000000
000000
000000
000000
000000
000000
000000
000000
000000
007800
00FC00
01FE00
01FE00
01FE00
01FE00
00FC00
007800
000000
000000
000000
000000
000000
000000
000000
000000
000000
000000
ENDCHAR

STARTCHAR slash
ENCODING 47
SWIDTH 568 0
DWIDTH 22 0
BBX 22 40 0 -10
BITMAP
000000
000000
000000
000000
000000
000000
0000F8
0000F8
0001F0
0001F0
0003E0
0003E0
0007C0
0007C0
000F80
000F80
001F00
001F00
003E00
003E00
007C00
007C00
00F800
00F800
01F000
01F000
03E000
03E000
07C000
07C000
0F8000
0F8000
000000
000000
000000
000000
000000
000000
000000
000000
ENDCHAR

STARTCHAR zero
ENCODING 48
SWIDTH 568 0
DWIDTH 22 0
BBX 22 40 0 -10
BITMAP
000000
000000
000000
000000
000000
000000
000000
000000
01FE00
07FF80
0FFFC0
1FFFE0
1F03E0
3F03F0
3E01F0
7E01F8
7E01F8
7E01F8
7E01F8
7E01F8
7E01F8
7E01F8
7E01F8
3E01F0
3F03F0
1F03E0
1FFFE0
0FFFC0
07FF80
01FE00
000000
000000
000000
000000
000000
000000
000000
000000
000000
000000
ENDCHAR

STARTCHAR one
ENCODING 49
SWIDTH 568 0
DWIDTH 22 0
BBX 22 40 0 -10
BITMAP
000000
000000
000000
000000
000000
000000
000000
000000
00FC00
01FC00
3FFC00
3FFC00
3FFC00
3FFC00
00FC00
00FC00
00FC00
00FC00
00FC00
00FC00
00FC00
00FC00
00FC00
00FC00
00FC00
00FC00
3FFFF0
3FFFF0
3FFFF0
3FFFF0
000000
000000
000000
000000
000000
000000
000000
000000
000000
000000
ENDCHAR

STARTCHAR two
ENCODING 50
SWIDTH 568 0
DWIDTH 22 0
BBX 22 40 0 -10
BITMAP
000000
000000
000000
000000
000000
000000
000000
000000
03FF00
0FFFC0
1FFFE0
1FFFE0
3F07F0
3E03F0
3E03F0
3E03E0
0007E0
000FC0
001F80
003F00
00FE00
01FC00
03F000
07E000
0FC0F0
1F80F0
3FFFF0
3FFFF0
3FFFF0
3FFFF0
000000
000000
000000
000000
000000
000000
000000
000000
000000
000000
ENDCHAR

STARTCHAR three
ENCODING 51
SWIDTH 568 0
DWIDTH 22 0
BBX 22 40 0 -10
BITMAP
000000
000000
000000
000000
000000
000000
000000
000000
07FF80
1FFFE0
3FFFE0
3FFFF0
3807F0
3803F0
0003F0
0003E0
00FFC0
00FF80
00FFE0
00FFE0
0007F0
0003F0
0003F0
0003F0
3C03F0
3C03F0
3FFFE0
1FFFE0
1FFFC0
07FF00
000000
000000
000000
000000
000000
000000
000000
000000
000000
000000
ENDCHAR

STARTCHAR four
ENCODING 52
SWIDTH 568 0
DWIDTH 22 0
BBX 22 40 0 -10
BITMAP
000000
000000
000000
000000
000000
000000
000000
000000
00FFC0
00FFC0
01FFC0
01FFC0
03CFC0
03CFC0
078FC0
078FC0
0F0FC0
0F0FC0
1E0FC0
1E0FC0
3FFFF0
3FFFF0
3FFFF0
3FFFF0
000FC0
000FC0
00FFF0
00FFF0
00FFF0
00FFF0
000000
000000
000000
000000
000000
000000
000000
000000
000000
000000
ENDCHAR

STARTCHAR five
ENCODING 53
SWIDTH 568 0
DWIDTH 22 0
BBX 22 40 0 -10
BITMAP
000000
000000
000000
000000
000000
000000
000000
000000
3FFFF0
3FFFF0
3FFFF0
3FFFF0
3F0000
3F0000
3F0000
3F0000
3FFF80
3FFFE0
3FFFE0
3FFFE0
3807E0
0007E0
0007E0
0007E0
3C07E0
3C07E0
3FFFE0
3FFFC0
1FFF80
0FFE00
000000
000000
000000
000000
000000
000000
000000
000000
000000
000000
ENDCHAR

STARTCHAR six
ENCODING 54
SWIDTH 568 0
DWIDTH 22 0
BBX 22 40 0 -10
BITMAP
000000
000000
000000
000000
000000
000000
000000
000000
003FE0
01FFE0
03FFE0
07FFE0
0FF000
0FC000
1F8000
1F8000
1F1F00
3F7FC0
3FFFE0
3FFFE0
3F83F0
3F01F0
3F01F0
3F01F0
3F01F0
3F83F0
1FFFE0
1FFFE0
0FFFC0
03FF00
000000
000000
000000
000000
000000
000000
000000
000000
000000
000000
ENDCHAR

STARTCHAR seven
ENCODING 55
SWIDTH 568 0
DWIDTH 22 0
BBX 22 40 0 -10
BITMAP
000000
000000
000000
000000
000000
000000
000000
000000
3FFFF0
3FFFF0
3FFFF0
3FFFF0
3C03F0
3C03F0
0007E0
0007E0
000FC0
000FC0
001F80
001F80
003F00
003F00
007E00
007E00
00FC00
00FC00
01F800
01F800
03F000
03F000
000000
000000
000000
000000
000000
000000
000000
000000
000000
000000
ENDCHAR

STARTCHAR eight
ENCODING 56
SWIDTH 568 0
DWIDTH 22 0
BBX 22 40 0 -10
BITMAP
000000
000000
000000
000000
000000
000000
000000
000000
03FF00
0FFFC0
0FFFC0
1FFFE0
1F03E0
1F03E0
1F03E0
1F03E0
0FFFC0
07FF80
0FFFC0
1FFFE0
1F03E0
3F03F0
3F03F0
3F03F0
3F03F0
3F03F0
1FFFE0
1FFFE0
0FFFC0
03FF00
000000
000000
000000
000000
000000
000000
000000
000000
000000
000000
ENDCHAR

STARTCHAR nine
ENCODING 57
SWIDTH 568 0
DWIDTH 22 0
BBX 22 40 0 -10
BITMAP
000000
000000
000000
000000
000000
000000
000000
000000
03FF00
0FFFC0
1FFFE0
1FFFE0
3F07F0
3E03F0
3E03F0
3E03F0
3E03F0
3F07F0
1FFFF0
1FFFF0
0FFBF0
03E3E0
0007E0
0007E0
000FC0
003FC0
1FFF80
1FFF00
1FFE00
1FF000
000000
000000
000000
000000
000000
000000
000000
000000
000000
000000
ENDCHAR

STARTCHAR colon
ENCODING 58
SWIDTH 568 0
DWIDTH 22 0
BBX 22 40 0 -10
BITMAP
000000
000000
000000
000000
000000
000000
000000
000000
000000
000000
000000
000000
007800
00FC00
01FE00
01FE00
01FE00
01FE00
00FC00
007800
000000
000000
007800
00FC00
01FE00
01FE00
01FE00
01FE00
00FC00
007800
000000
000000
000000
000000
000000
000000
000000
000000
000000
000000
ENDCHAR

STARTCHAR semicolon
ENCODING 59
SWIDTH 568 0
DWIDTH 22 0
BBX 22 40 0 -10
BITMAP
000000
000000
000000
000000
000000
000000
000000
000000
000000
000000
000000
000000
003C00
007E00
00FF00
00FF00
00FF00
00FF00
007E00
003C00
000000
000000
000000
000000
00FF00
00FE00
00FE00
00FC00
01FC00
01F800
01F800
01F000
03F000
03E000
03E000
07C000
000000
000000
000000
000000
ENDCHAR

STARTCHAR less
ENCODING 60
SWIDTH 568 0
DWIDTH 22 0
BBX 22 40 0 -10
BITMAP
000000
000000
000000
000000
000000
000000
000000
000000
000000
000000
000060
0001E0
0007E0
001FE0
007FC0
01FF00
07FC00
1FF000
3FC000
3FC000
1FF000
07FC00
01FF00
007FC0
001FE0
0007E0
0001E0
000060
000000
000000
000000
000000
000000
000000
000000
000000
000000
000000
000000
000000
ENDCHAR

STARTCHAR equal
ENCODING 61
SWIDTH 568 0
DWIDTH 22 0
BBX 22 40 0 -10
BITMAP
000000
000000
000000
000000
000000
000000
000000
000000
000000
000000
000000
000000
000000
000000
3FFFF0
3FFFF0
3FFFF0
3FFFF0
000000
000000
000000
000000
3FFFF0
3FFFF0
3FFFF0
3FFFF0
000000
000000
000000
000000
000000
000000
000000
000000
000000
000000
000000
000000
000000
000000
ENDCHAR

STARTCHAR greater
ENCODING 62
SWIDTH 568 0
DWIDTH 22 0
BBX 22 40 0 -10
BITMAP
000000
000000
000000
000000
000000
000000
000000
000000
000000
000000
180000
1E0000
1F8000
1FE000
0FF800
03FE00
00FF80
003FE0
000FF0
000FF0
003FE0
00FF80
03FE00
0FF800
1FE000
1F8000
1E0000
180000
000000
000000
000000
000000
000000
000000
000000
000000
000000
000000
000000
000000
ENDCHAR

STARTCHAR question
ENCODING 63
SWIDTH 568 0
DWIDTH 22 0
BBX 22 40 0 -10
BITMAP
000000
000000
000000
000000
000000
000000
000000
000000
03FF00
0FFFC0
0FFFC0
1FFFE0
1F87E0
1F87E0
0007E0
000FC0
003F80
007F00
00FE00
01FC00
01F800
01F800
000000
000000
01F800
03FC00
07FE00
07FE00
03FC00
01F800
000000
000000
000000
000000
000000
000000
000000
000000
000000
000000
ENDCHAR

STARTCHAR at
ENCODING 64
SWIDTH 568 0
DWIDTH 22 0
BBX 22 40 0 -10
BITMAP
000000
000000
000000
000000
000000
000000
03FE00
0FFF80
1FFFC0
3FFFC0
3E03E0
7C01E0
7C01E0
7801E0
783FE0
78FFE0
78FFE0
79FFE0
79E1E0
79E1E0
79E1E0
79E1E0
79FFF8
78FFF8
78FF78
783C78
780000
7C0000
7C0000
3F0000
3FFF80
1FFF80
0FFF80
03FF80
000000
000000
000000
000000
000000
000000
ENDCHAR

STARTCHAR A
ENCODING 65
SWIDTH 568 0
DWIDTH 22 0
BBX 22 40 0 -10
BITMAP
000000
000000
000000
000000
000000
000000
000000
000000
01FE00
01FE00
01FE00
01FE00
03FF00
03FF00
03CF00
03CF00
07CF80
078780
078780
0F87C0
0FFFC0
0FFFC0
0FFFC0
1FFFE0
1E01E0
1E01E0
7F87F8
7F87F8
7F87F8
7F87F8
000000
000000
000000
000000
000000
000000
000000
000000
000000
000000
ENDCHAR

STARTCHAR B
ENCODING 66
SWIDTH 568 0
DWIDTH 22 0
BBX 22 40 0 -10
BITMAP
000000
000000
000000
000000
000000
000000
000000
000000
7FFF00
7FFFC0
7FFFC0
7FFFE0
1F83E0
1F83E0
1F83E0
1F83C0
1FFFC0
1FFF80
1FFFE0
1FFFF0
1F81F0
1F81F8
1F81F8
1F81F8
1F81F8
1F81F8
7FFFF0
7FFFF0
7FFFE0
7FFFC0
000000
000000
000000
000000
000000
000000
000000
000000
000000
000000
ENDCHAR

STARTCHAR C
ENCODING 67
SWIDTH 568 0
DWIDTH 22 0
BBX 22 40 0 -10
BITMAP
000000
000000
000000
000000
000000
000000
000000
000000
01FC78
07FF78
1FFFF8
1FFFF8
3F03F8
3F00F8
3E0078
7E0078
7E0000
7E0000
7E0000
7E0000
7E0000
7E0000
7E0000
3E0000
3F0078
3F00F8
1FFFF0
1FFFF0
07FFE0
01FF80
000000
000000
000000
000000
000000
000000
000000
000000
000000
000000
ENDCHAR

STARTCHAR D
ENCODING 68
SWIDTH 568 0
DWIDTH 22 0
BBX 22 40 0 -10
BITMAP
000000
000000
000000
000000
000000
000000
000000
000000
7FFF00
7FFFC0
7FFFE0
7FFFF0
1F83F0
1F81F8
1F81F8
1F81F8
1F81F8
1F81F8
1F81F8
1F81F8
1F81F8
1F81F8
1F81F8
1F81F8
1F81F8
1F83F0
7FFFF0
7FFFE0
7FFFC0
7FFF00
000000
000000
000000
000000
000000
000000
000000
000000
000000
000000
ENDCHAR

STARTCHAR E
ENCODING 69
SWIDTH 568 0
DWIDTH 22 0
BBX 22 40 0 -10
BITMAP
000000
000000
000000
000000
000000
000000
000000
000000
7FFFF8
7FFFF8
7FFFF8
7FFFF8
1F8078
1F8078
1F9E78
1F9E78
1FFE00
1FFE00
1FFE00
1FFE00
1F9E00
1F9E00
1F8078
1F8078
1F8078
1F8078
7FFFF8
7FFFF8
7FFFF8
7FFFF8
000000
000000
000000
000000
000000
000000
000000
000000
000000
000000
ENDCHAR

STARTCHAR F
ENCODING 70
SWIDTH 568 0
DWIDTH 22 0
BBX 22 40 0 -10
BITMAP
000000
000000
000000
000000
000000
000000
000000
000000
7FFFF8
7FFFF8
7FFFF8
1FFFF8
1F8078
1F8078
1F9E78
1F9E78
1FFE00
1FFE00
1FFE00
1FFE00
1F9E00
1F9E00
1F8000
1F8000
1F8000
1F8000
7FE000
7FE000
7FE000
7FE000
000000
000000
000000
000000
000000
000000
000000
000000
000000
000000
ENDCHAR

STARTCHAR G
ENCODING 71
SWIDTH 568 0
DWIDTH 22 0
BBX 22 40 0 -10
BITMAP
000000
000000
000000
000000
000000
000000
000000
000000
01FC78
07FF78
1FFFF8
1FFFF8
3F03F8
3F00F8
3E0078
7E0078
7E0000
7E0000
7E1FF8
7E1FF8
7E1FF8
7E1FF8
7E01F8
3E01F8
3F01F8
3F01F8
1FFFF8
1FFFF0
07FFE0
01FF00
000000
000000
000000
000000
000000
000000
000000
000000
000000
000000
ENDCHAR

STARTCHAR H
ENCODING 72
SWIDTH 568 0
DWIDTH 22 0
BBX 22 40 0 -10
BITMAP
000000
000000
000000
000000
000000
000000
000000
000000
7F87F8
7F87F8
7F87F8
7F87F8
1F87E0
1F87E0
1F87E0
1F87E0
1FFFE0
1FFFE0
1FFFE0
1FFFE0
1F87E0
1F87E0
1F87E0
1F87E0
1F87E0
1F87E0
7F87F8
7F87F8
7F87F8
7F87F8
000000
000000
000000
000000
000000
000000
000000
000000
000000
000000
ENDCHAR

STARTCHAR I
ENCODING 73
SWIDTH 568 0
DWIDTH 22 0
BBX 22 40 0 -10
BITMAP
000000
000000
000000
000000
000000
000000
000000
000000
3FFFF0
3FFFF0
3FFFF0
3FFFF0
00FC00
00FC00
00FC00
00FC00
00FC00
00FC00
00FC00
00FC00
00FC00
00FC00
00FC00
00FC00
00FC00
00FC00
3FFFF0
3FFFF0
3FFFF0
3FFFF0
000000
000000
000000
000000
000000
000000
000000
000000
000000
000000
ENDCHAR

STARTCHAR J
ENCODING 74
SWIDTH 568 0
DWIDTH 22 0
BBX 22 40 0 -10
BITMAP
000000
000000
000000
000000
000000
000000
000000
000000
01FFF8
01FFF8
01FFF8
01FFF8
001F80
001F80
001F80
001F80
001F80
001F80
001F80
001F80
781F80
781F80
781F80
781F80
7C1F80
7E1F80
7FFF80
3FFF00
3FFF00
0FFC00
000000
000000
000000
000000
000000
000000
000000
000000
000000
000000
ENDCHAR

STARTCHAR K
ENCODING 75
SWIDTH 568 0
DWIDTH 22 0
BBX 22 40 0 -10
BITMAP
000000
000000
000000
000000
000000
000000
000000
000000
7F83F8
7F83F8
7F87F8
7F87F8
1F8F80
1F8F00
1F9F00
1F9E00
1FFE00
1FFC00
1FFC00
1FFC00
1FFE00
1FFE00
1F9F00
1F9F00
1F8F80
1F8F80
7F87F8
7F87F8
7F83F8
7F83F8
000000
000000
000000
000000
000000
000000
000000
000000
000000
000000
ENDCHAR

STARTCHAR L
ENCODING 76
SWIDTH 568 0
DWIDTH 22 0
BBX 22 40 0 -10
BITMAP
000000
000000
000000
000000
000000
000000
000000
000000
3FF000
3FF000
3FF000
3FF000
0FC000
0FC000
0FC000
0FC000
0FC000
0FC000
0FC000
0FC000
0FC0F0
0FC0F0
0FC0F0
0FC0F0
0FC0F0
0FC0F0
3FFFF0
3FFFF0
3FFFF0
3FFFF0
000000
000000
000000
000000
000000
000000
000000
000000
000000
000000
ENDCHAR

STARTCHAR M
ENCODING 77
SWIDTH 568 0
DWIDTH 22 0
BBX 22 40 0 -10
BITMAP
000000
000000
000000
000000
000000
000000
000000
000000
7E01F8
7E01F8
7F03F8
7F03F8
1F03E0
1F87E0
1F87E0
1F87E0
1FCFE0
1FCFE0
1EFDE0
1EFDE0
1F7BE0
1F7BE0
1F33E0
1F33E0
1F03E0
1F03E0
7F03F8
7F03F8
7F03F8
7F03F8
000000
000000
000000
000000
000000
000000
000000
000000
000000
000000
ENDCHAR

STARTCHAR N
ENCODING 78
SWIDTH 568 0
DWIDTH 22 0
BBX 22 40 0 -10
BITMAP
000000
000000
000000
000000
000000
000000
000000
000000
7F87F8
7F87F8
7F87F8
7F87F8
1FC7E0
1FC7E0
1FE7E0
1FE7E0
1FF7E0
1FF7E0
1FBFE0
1FBFE0
1F9FE0
1F9FE0
1F8FE0
1F8FE0
1F87E0
1F87E0
7F87E0
7F87E0
7F87E0
7F87E0
000000
000000
000000
000000
000000
000000
000000
000000
000000
000000
ENDCHAR

STARTCHAR O
ENCODING 79
SWIDTH 568 0
DWIDTH 22 0
BBX 22 40 0 -10
BITMAP
000000
000000
000000
000000
000000
000000
000000
000000
01FE00
07FF80
1FFFE0
1FFFE0
3F03F0
3F03F0
3E01F0
7E01F8
7E01F8
7E01F8
7E01F8
7E01F8
7E01F8
7E01F8
7E01F8
3E01F0
3F03F0
3F03F0
1FFFE0
1FFFE0
07FF80
01FE00
000000
000000
000000
000000
000000
000000
000000
000000
000000
000000
ENDCHAR

STARTCHAR P
ENCODING 80
SWIDTH 568 0
DWIDTH 22 0
BBX 22 40 0 -10
BITMAP
000000
000000
000000
000000
000000
000000
000000
000000
3FFF00
3FFFC0
3FFFE0
3FFFE0
0FC3F0
0FC3F0
0FC3F0
0FC3F0
0FC3F0
0FC3F0
0FFFE0
0FFFE0
0FFFC0
0FFF00
0FC000
0FC000
0FC000
0FC000
3FF000
3FF000
3FF000
3FF000
000000
000000
000000
000000
000000
000000
000000
000000
000000
000000
ENDCHAR

STARTCHAR Q
ENCODING 81
SWIDTH 568 0
DWIDTH 22 0
BBX 22 40 0 -10
BITMAP
000000
000000
000000
000000
000000
000000
000000
000000
01FE00
07FF80
1FFFE0
1FFFE0
3F03F0
3F03F0
3E01F0
7E01F8
7E01F8
7E01F8
7E01F8
7E01F8
7E01F8
7E01F8
7E01F8
3E01F0
3F03F0
3F03F0
1FFFE0
1FFFE0
07FF80
01FE00
01E000
01C000
03FC38
03FFF8
079FF0
0707E0
000000
000000
000000
000000
ENDCHAR

STARTCHAR R
ENCODING 82
SWIDTH 568 0
DWIDTH 22 0
BBX 22 40 0 -10
BITMAP
000000
000000
000000
000000
000000
000000
000000
000000
7FFF80
7FFFC0
7FFFC0
7FFFE0
1F87E0
1F87E0
1F87E0
1F87E0
1FFFC0
1FFFC0
1FFF80
1FFE00
1F9F00
1F9F00
1F8F00
1F8F80
1F8780
1F87C0
7F87F8
7F83F8
7F83F8
7F83F8
000000
000000
000000
000000
000000
000000
000000
000000
000000
000000
ENDCHAR

STARTCHAR S
ENCODING 83
SWIDTH 568 0
DWIDTH 22 0
BBX 22 40 0 -10
BITMAP
000000
000000
000000
000000
000000
000000
000000
000000
03F9E0
0FFDE0
1FFFE0
1FFFE0
3F03E0
3F01E0
3F01E0
3F01E0
1F8000
1FF800
0FFF00
03FFC0
007FC0
0007E0
3C07E0
3C07E0
3E07E0
3F07E0
3FFFC0
3FFFC0
3DFF80
3C7E00
000000
000000
000000
000000
000000
000000
000000
000000
000000
000000
ENDCHAR

STARTCHAR T
ENCODING 84
SWIDTH 568 0
DWIDTH 22 0
BBX 22 40 0 -10
BITMAP
000000
000000
000000
000000
000000
000000
000000
000000
7FFFF8
7FFFF8
7FFFF8
7FFFF8
78FC78
78FC78
78FC78
78FC78
78FC78
78FC78
00FC00
00FC00
00FC00
00FC00
00FC00
00FC00
00FC00
00FC00
03FF00
03FF00
03FF00
03FF00
000000
000000
000000
000000
000000
000000
000000
000000
000000
000000
ENDCHAR

STARTCHAR U
ENCODING 85
SWIDTH 568 0
DWIDTH 22 0
BBX 22 40 0 -10
BITMAP
000000
000000
000000
000000
000000
000000
000000
000000
7F87F8
7F87F8
7F87F8
7F87F8
1F87E0
1F87E0
1F87E0
1F87E0
1F87E0
1F87E0
1F87E0
1F87E0
1F87E0
1F87E0
1F87E0
1F87E0
1F87E0
1F87E0
0FFFC0
0FFFC0
07FF80
03FF00
000000
000000
000000
000000
000000
000000
000000
000000
000000
000000
ENDCHAR

STARTCHAR V
ENCODING 86
SWIDTH 568 0
DWIDTH 22 0
BBX 22 40 0 -10
BITMAP
000000
000000
000000
000000
000000
000000
000000
000000
7E01F8
7E01F8
7E01F8
7F03F8
1F03E0
1F03E0
1F03E0
1F87E0
0F87C0
0F87C0
0F87C0
07CF80
07CF80
07CF80
03FF00
03FF00
03FF00
01FE00
01FE00
01FE00
00FC00
00FC00
000000
000000
000000
000000
000000
000000
000000
000000
000000
000000
ENDCHAR

STARTCHAR W
ENCODING 87
SWIDTH 568 0
DWIDTH 22 0
BBX 22 40 0 -10
BITMAP
000000
000000
000000
000000
000000
000000
000000
000000
7F87F8
7F87F8
7F87F8
7F87F8
1E01E0
1E01E0
1E31E0
1E31E0
1E31E0
1E79E0
1E79E0
1E79E0
1EFDE0
1EFDE0
1FCFE0
0FCFC0
0FCFC0
0FCFC0
0F87C0
078780
078780
078780
000000
000000
000000
000000
000000
000000
000000
000000
000000
000000
ENDCHAR

STARTCHAR X
ENCODING 88
SWIDTH 568 0
DWIDTH 22 0
BBX 22 40 0 -10
BITMAP
000000
000000
000000
000000
000000
000000
000000
000000
7F03F8
7F03F8
7F03F8
7F87F8
0F87C0
07CF80
07CF80
03CF00
03FF00
01FE00
01FE00
01FE00
03FF00
03FF00
07CF80
07CF80
0F87C0
0F87C0
7F03F8
7F03F8
7E01F8
7E01F8
000000
000000
000000
000000
000000
000000
000000
000000
000000
000000
ENDCHAR

STARTCHAR Y
ENCODING 89
SWIDTH 568 0
DWIDTH 22 0
BBX 22 40 0 -10
BITMAP
000000
000000
000000
000000
000000
000000
000000
000000
3F03F0
3F03F0
3F03F0
3F87F0
0F87C0
0F87C0
07CF80
07CF80
03FF00
03FF00
01FE00
01FE00
00FC00
00FC00
00FC00
00FC00
00FC00
00FC00
0FFFC0
0FFFC0
0FFFC0
0FFFC0
000000
000000
000000
000000
000000
000000
000000
000000
000000
000000
ENDCHAR

STARTCHAR Z
ENCODING 90
SWIDTH 568 0
DWIDTH 22 0
BBX 22 40 0 -10
BITMAP
000000
000000
000000
000000
000000
000000
000000
000000
1FFFC0
1FFFC0
1FFFC0
1FFF80
1E1F80
1E1F00
1E3F00
1E3E00
007E00
007C00
00FC00
00F800
01F800
01F000
03F1E0
03E1E0
07E1E0
07C1E0
0FFFE0
0FFFE0
1FFFE0
1FFFE0
000000
000000
000000
000000
000000
000000
000000
000000
000000
000000
ENDCHAR

STARTCHAR bracketleft
ENCODING 91
SWIDTH 568 0
DWIDTH 22 0
BBX 22 40 0 -10
BITMAP
000000
000000
03FF00
03FF00
03FF00
03FF00
03F000
03F000
03F000
03F000
03F000
03F000
03F000
03F000
03F000
03F000
03F000
03F000
03F000
03F000
03F000
03F000
03F000
03F000
03F000
03F000
03F000
03F000
03F000
03F000
03FF00
03FF00
03FF00
03FF00
000000
000000
000000
000000
000000
000000
ENDCHAR

STARTCHAR backslash
ENCODING 92
SWIDTH 568 0
DWIDTH 22 0
BBX 22 40 0 -10
BITMAP
000000
000000
000000
000000
000000
000000
7C0000
7C0000
3E0000
3E0000
1F0000
1F0000
0F8000
0F8000
07C000
07C000
03E000
03E000
01F000
01F000
00F800
00F800
007C00
007C00
003E00
003E00
001F00
001F00
000F80
000F80
0007C0
0007C0
000000
000000
000000
000000
000000
000000
000000
000000
ENDCHAR

STARTCHAR bracketright
ENCODING 93
SWIDTH 568 0
DWIDTH 22 0
BBX 22 40 0 -10
BITMAP
000000
000000
03FF00
03FF00
03FF00
03FF00
003F00
003F00
003F00
003F00
003F00
003F00
003F00
003F00
003F00
003F00
003F00
003F00
003F00
003F00
003F00
003F00
003F00
003F00
003F00
003F00
003F00
003F00
003F00
003F00
03FF00
03FF00
03FF00
03FF00
000000
000000
000000
000000
000000
000000
ENDCHAR

STARTCHAR asciicircum
ENCODING 94
SWIDTH 568 0
DWIDTH 22 0
BBX 22 40 0 -10
BITMAP
000000
000000
000000
000000
000000
007000
00F800
01FC00
03FE00
07DF00
0F8F80
1F07C0
3E03E0
000000
000000
000000
000000
000000
000000
000000
000000
000000
000000
000000
000000
000000
000000
000000
000000
000000
000000
000000
000000
000000
000000
000000
000000
000000
000000
000000
ENDCHAR

STARTCHAR underscore
ENCODING 95
SWIDTH 568 0
DWIDTH 22 0
BBX 22 40 0 -10
BITMAP
000000
000000
000000
000000
000000
000000
000000
000000
000000
000000
000000
000000
000000
000000
000000
000000
000000
000000
000000
000000
000000
000000
000000
000000
000000
000000
3FFFFC
3FFFFC
3FFFFC
3FFFFC
000000
000000
000000
000000
000000
000000
000000
000000
000000
000000
ENDCHAR

STARTCHAR quoteleft
ENCODING 96
SWIDTH 568 0
DWIDTH 22 0
BBX 22 40 0 -10
BITMAP
000000
000000
000000
000000
03C000
03E000
03E000
01F000
00F800
007800
003C00
001E00
000E00
000700
000000
000000
000000
000000
000000
000000
000000
000000
000000
000000
000000
000000
000000
000000
000000
000000
000000
000000
000000
000000
000000
000000
000000
000000
000000
000000
ENDCHAR

STARTCHAR a
ENCODING 97
SWIDTH 568 0
DWIDTH 22 0
BBX 22 40 0 -10
BITMAP
000000
000000
000000
000000
000000
000000
000000
000000
000000
000000
000000
000000
03FF80
07FFC0
1FFFE0
1FFFE0
0007E0
0007E0
07FFE0
1FFFE0
3FFFE0
3FFFE0
7E07E0
7E07E0
7E07E0
7E0FE0
7FFFF8
3FFFF8
3FF7F8
0FC7F8
000000
000000
000000
000000
000000
000000
000000
000000
000000
000000
ENDCHAR

STARTCHAR b
ENCODING 98
SWIDTH 568 0
DWIDTH 22 0
BBX 22 40 0 -10
BITMAP
000000
000000
000000
000000
000000
000000
7F8000
7F8000
7F8000
7F8000
1F8000
1F8000
1F8F80
1FBFE0
1FFFF0
1FFFF0
1FC3F8
1F81F8
1F81F8
1F81F8
1F81F8
1F81F8
1F81F8
1F81F8
1F81F8
1FC3F8
7FFFF0
7FFFF0
7FBFE0
7F8F80
000000
000000
000000
000000
000000
000000
000000
000000
000000
000000
ENDCHAR

STARTCHAR c
ENCODING 99
SWIDTH 568 0
DWIDTH 22 0
BBX 22 40 0 -10
BITMAP
000000
000000
000000
000000
000000
000000
000000
000000
000000
000000
000000
000000
01FC78
07FF78
0FFFF8
1FFFF8
3F81F8
3F00F8
7F0078
7E0078
7E0000
7E0000
7E0000
7F0000
3F0038
3FC0F8
1FFFF8
0FFFF0
07FFC0
01FF00
000000
000000
000000
000000
000000
000000
000000
000000
000000
000000
ENDCHAR

STARTCHAR d
ENCODING 100
SWIDTH 568 0
DWIDTH 22 0
BBX 22 40 0 -10
BITMAP
000000
000000
000000
000000
000000
000000
007FE0
007FE0
007FE0
007FE0
0007E0
0007E0
07C7E0
1FF7E0
3FFFE0
3FFFE0
7F0FE0
7E07E0
7E07E0
7E07E0
7E07E0
7E07E0
7E07E0
7E07E0
7E07E0
7F0FE0
3FFFF8
3FFFF8
1FF7F8
07E7F8
000000
000000
000000
000000
000000
000000
000000
000000
000000
000000
ENDCHAR

STARTCHAR e
ENCODING 101
SWIDTH 568 0
DWIDTH 22 0
BBX 22 40 0 -10
BITMAP
000000
000000
000000
000000
000000
000000
000000
000000
000000
000000
000000
000000
01FF00
07FFC0
1FFFE0
1FFFF0
3F01F0
3E00F8
7FFFF8
7FFFF8
7FFFF8
7FFFF8
7E0000
7E0000
3F0078
3F81F8
1FFFF8
1FFFF0
07FFC0
01FF00
000000
000000
000000
000000
000000
000000
000000
000000
000000
000000
ENDCHAR

STARTCHAR f
ENCODING 102
SWIDTH 568 0
DWIDTH 22 0
BBX 22 40 0 -10
BITMAP
000000
000000
000000
000000
000000
000000
00FFF0
01FFF0
03FFF0
03FFF0
03F000
03F000
3FFFC0
3FFFC0
3FFFC0
3FFFC0
03F000
03F000
03F000
03F000
03F000
03F000
03F000
03F000
03F000
03F000
3FFFC0
3FFFC0
3FFFC0
3FFFC0
000000
000000
000000
000000
000000
000000
000000
000000
000000
000000
ENDCHAR

STARTCHAR g
ENCODING 103
SWIDTH 568 0
DWIDTH 22 0
BBX 22 40 0 -10
BITMAP
000000
000000
000000
000000
000000
000000
000000
000000
000000
000000
000000
000000
07C7F8
1FF7F8
3FFFF8
3FFFF8
7F0FE0
7E07E0
7E07E0
7E07E0
7E07E0
7E07E0
7E07E0
7E07E0
7E07E0
7F0FE0
3FFFE0
3FFFE0
1FF7E0
07E7E0
0007E0
0007E0
0007E0
0007E0
1FFFE0
1FFFC0
1FFFC0
1FFF00
000000
000000
ENDCHAR

STARTCHAR h
ENCODING 104
SWIDTH 568 0
DWIDTH 22 0
BBX 22 40 0 -10
BITMAP
000000
000000
000000
000000
000000
000000
7F8000
7F8000
7F8000
7F8000
1F8000
1F8000
1F8F80
1FBFC0
1FFFE0
1FFFE0
1FC7E0
1F87E0
1F87E0
1F87E0
1F87E0
1F87E0
1F87E0
1F87E0
1F87E0
1F87E0
7F87F8
7F87F8
7F87F8
7F87F8
000000
000000
000000
000000
000000
000000
000000
000000
000000
000000
ENDCHAR

STARTCHAR i
ENCODING 105
SWIDTH 568 0
DWIDTH 22 0
BBX 22 40 0 -10
BITMAP
000000
000000
000000
000000
007800
00FC00
00FC00
00FC00
00FC00
007800
000000
000000
0FFC00
0FFC00
0FFC00
0FFC00
00FC00
00FC00
00FC00
00FC00
00FC00
00FC00
00FC00
00FC00
00FC00
00FC00
3FFFF0
3FFFF0
3FFFF0
3FFFF0
000000
000000
000000
000000
000000
000000
000000
000000
000000
000000
ENDCHAR

STARTCHAR j
ENCODING 106
SWIDTH 568 0
DWIDTH 22 0
BBX 22 40 0 -10
BITMAP
000000
000000
000000
000000
000780
000FC0
000FC0
000FC0
000FC0
000780
000000
000000
000FC0
000FC0
000FC0
000FC0
000FC0
000FC0
000FC0
000FC0
000FC0
000FC0
000FC0
000FC0
000FC0
000FC0
000FC0
000FC0
000FC0
000FC0
000FC0
000FC0
000FC0
000FC0
0FFFC0
0FFF80
0FFF80
0FFE00
000000
000000
ENDCHAR

STARTCHAR k
ENCODING 107
SWIDTH 568 0
DWIDTH 22 0
BBX 22 40 0 -10
BITMAP
000000
000000
000000
000000
000000
000000
7F8000
7F8000
7F8000
7F8000
1F8000
1F8000
1F87F8
1F87F8
1F87F8
1F8FF8
1F9F00
1FBE00
1FFC00
1FFC00
1FFE00
1FFE00
1FDF00
1F9F00
1F8F80
1F8F80
7F87F0
7F87F0
7F83F0
7F83F0
000000
000000
000000
000000
000000
000000
000000
000000
000000
000000
ENDCHAR

STARTCHAR l
ENCODING 108
SWIDTH 568 0
DWIDTH 22 0
BBX 22 40 0 -10
BITMAP
000000
000000
000000
000000
000000
000000
0FFC00
0FFC00
0FFC00
0FFC00
00FC00
00FC00
00FC00
00FC00
00FC00
00FC00
00FC00
00FC00
00FC00
00FC00
00FC00
00FC00
00FC00
00FC00
00FC00
00FC00
3FFFF0
3FFFF0
3FFFF0
3FFFF0
000000
000000
000000
000000
000000
000000
000000
000000
000000
000000
ENDCHAR

STARTCHAR m
ENCODING 109
SWIDTH 568 0
DWIDTH 22 0
BBX 22 40 0 -10
BITMAP
000000
000000
000000
000000
000000
000000
000000
000000
000000
000000
000000
000000
79E3E0
7BF7F0
7FFFF8
7FFFF8
7E79F8
7E79F8
7E79F8
7E79F8
7E79F8
7E79F8
7E79F8
7E79F8
7E79F8
7E79F8
7E79F8
7E79F8
7E01F8
7E01F8
000000
000000
000000
000000
000000
000000
000000
000000
000000
000000
ENDCHAR

STARTCHAR n
ENCODING 110
SWIDTH 568 0
DWIDTH 22 0
BBX 22 40 0 -10
BITMAP
000000
000000
000000
000000
000000
000000
000000
000000
000000
000000
000000
000000
7F8F80
7FBFC0
7FFFE0
7FFFE0
1FC7E0
1F87E0
1F87E0
1F87E0
1F87E0
1F87E0
1F87E0
1F87E0
1F87E0
1F87E0
7F87F8
7F87F8
7F87F8
7F87F8
000000
000000
000000
000000
000000
000000
000000
000000
000000
000000
ENDCHAR

STARTCHAR o
ENCODING 111
SWIDTH 568 0
DWIDTH 22 0
BBX 22 40 0 -10
BITMAP
000000
000000
000000
000000
000000
000000
000000
000000
000000
000000
000000
000000
01FE00
07FF80
1FFFE0
1FFFE0
3F03F0
3F03F0
7E01F8
7E01F8
7E01F8
7E01F8
7E01F8
7E01F8
3F03F0
3F03F0
1FFFE0
1FFFE0
07FF80
01FE00
000000
000000
000000
000000
000000
000000
000000
000000
000000
000000
ENDCHAR

STARTCHAR p
ENCODING 112
SWIDTH 568 0
DWIDTH 22 0
BBX 22 40 0 -10
BITMAP
000000
000000
000000
000000
000000
000000
000000
000000
000000
000000
000000
000000
7F8F80
7FBFE0
7FFFF0
7FFFF0
1FC3F8
1F81F8
1F81F8
1F81F8
1F81F8
1F81F8
1F81F8
1F81F8
1F81F8
1FC3F8
1FFFF0
1FFFF0
1FBFE0
1F9F80
1F8000
1F8000
1F8000
1F8000
7FF800
7FF800
7FF800
7FF800
000000
000000
ENDCHAR

STARTCHAR q
ENCODING 113
SWIDTH 568 0
DWIDTH 22 0
BBX 22 40 0 -10
BITMAP
000000
000000
000000
000000
000000
000000
000000
000000
000000
000000
000000
000000
07C7F8
1FF7F8
3FFFF8
3FFFF8
7F0FE0
7E07E0
7E07E0
7E07E0
7E07E0
7E07E0
7E07E0
7E07E0
7E07E0
7F0FE0
3FFFE0
3FFFE0
1FF7E0
07E7E0
0007E0
0007E0
0007E0
0007E0
007FF8
007FF8
007FF8
007FF8
000000
000000
ENDCHAR

STARTCHAR r
ENCODING 114
SWIDTH 568 0
DWIDTH 22 0
BBX 22 40 0 -10
BITMAP
000000
000000
000000
000000
000000
000000
000000
000000
000000
000000
000000
000000
7F87E0
7FBFF0
7FFFF8
7FFFF8
07F078
07E078
07E000
07E000
07E000
07E000
07E000
07E000
07E000
07E000
7FFF80
7FFF80
7FFF80
7FFF80
000000
000000
000000
000000
000000
000000
000000
000000
000000
000000
ENDCHAR

STARTCHAR s
ENCODING 115
SWIDTH 568 0
DWIDTH 22 0
BBX 22 40 0 -10
BITMAP
000000
000000
000000
000000
000000
000000
000000
000000
000000
000000
000000
000000
07F3C0
1FFBC0
1FFFC0
1FFFC0
1F83C0
1F83C0
1FC000
0FF800
0FFF00
03FFC0
007FC0
0007E0
1E07E0
1E07E0
1FFFE0
1FFFC0
1EFFC0
1E7F00
000000
000000
000000
000000
000000
000000
000000
000000
000000
000000
ENDCHAR

STARTCHAR t
ENCODING 116
SWIDTH 568 0
DWIDTH 22 0
BBX 22 40 0 -10
BITMAP
000000
000000
000000
000000
000000
000000
07E000
07E000
07E000
07E000
07E000
07E000
7FFFE0
7FFFE0
7FFFE0
7FFFE0
07E000
07E000
07E000
07E000
07E000
07E000
07E000
07E000
07E078
07E0F8
07FFF8
03FFF0
03FFE0
00FF80
000000
000000
000000
000000
000000
000000
000000
000000
000000
000000
ENDCHAR

STARTCHAR u
ENCODING 117
SWIDTH 568 0
DWIDTH 22 0
BBX 22 40 0 -10
BITMAP
000000
000000
000000
000000
000000
000000
000000
000000
000000
000000
000000
000000
7F9FE0
7F9FE0
7F9FE0
7F9FE0
1F87E0
1F87E0
1F87E0
1F87E0
1F87E0
1F87E0
1F87E0
1F87E0
1F87E0
1F8FE0
1FFFF8
0FFFF8
0FF7F8
03E7F8
000000
000000
000000
000000
000000
000000
000000
000000
000000
000000
ENDCHAR

STARTCHAR v
ENCODING 118
SWIDTH 568 0
DWIDTH 22 0
BBX 22 40 0 -10
BITMAP
000000
000000
000000
000000
000000
000000
000000
000000
000000
000000
000000
000000
7E01F8
7E01F8
7F03F8
7F03F8
1F03E0
1F87E0
0F87C0
0FCFC0
07CF80
07CF80
03FF00
03FF00
03FF00
01FE00
01FE00
00FC00
00FC00
007800
000000
000000
000000
000000
000000
000000
000000
000000
000000
000000
ENDCHAR

STARTCHAR w
ENCODING 119
SWIDTH 568 0
DWIDTH 22 0
BBX 22 40 0 -10
BITMAP
000000
000000
000000
000000
000000
000000
000000
000000
000000
000000
000000
000000
7E01F8
7E01F8
7E01F8
7E01F8
1E31E0
1E31E0
1E79E0
1E79E0
1E79E0
1E79E0
0EFDC0
0FFFC0
0FCFC0
0FCFC0
07CF80
078780
078780
078780
000000
000000
000000
000000
000000
000000
000000
000000
000000
000000
ENDCHAR

STARTCHAR x
ENCODING 120
SWIDTH 568 0
DWIDTH 22 0
BBX 22 40 0 -10
BITMAP
000000
000000
000000
000000
000000
000000
000000
000000
000000
000000
000000
000000
7F03F8
7F03F8
7F87F8
7F87F8
07CF80
07CF80
03FF00
03FF00
01FE00
01FE00
03FF00
03FF00
07CF80
07CF80
7F87F8
7F87F8
7F03F8
7F03F8
000000
000000
000000
000000
000000
000000
000000
000000
000000
000000
ENDCHAR

STARTCHAR y
ENCODING 121
SWIDTH 568 0
DWIDTH 22 0
BBX 22 40 0 -10
BITMAP
000000
000000
000000
000000
000000
000000
000000
000000
000000
000000
000000
000000
7E01F8
7E01F8
7F03F8
7F03F8
1F03E0
1F83E0
0F87C0
0F87C0
07C780
07CF80
03EF80
03EF00
01FF00
01FE00
00FE00
00FE00
007C00
007C00
007C00
007800
00F800
00F800
1FFE00
1FFE00
1FFE00
1FFE00
000000
000000
ENDCHAR

STARTCHAR z
ENCODING 122
SWIDTH 568 0
DWIDTH 22 0
BBX 22 40 0 -10
BITMAP
000000
000000
000000
000000
000000
000000
000000
000000
000000
000000
000000
000000
1FFFE0
1FFFE0
1FFFE0
1FFFE0
1E0FC0
1E1F80
1E3F00
1E3E00
007C00
00F800
01F9E0
03F1E0
07E1E0
0FC1E0
1FFFE0
1FFFE0
1FFFE0
1FFFE0
000000
000000
000000
000000
000000
000000
000000
000000
000000
000000
ENDCHAR

STARTCHAR braceleft
ENCODING 123
SWIDTH 568 0
DWIDTH 22 0
BBX 22 40 0 -10
BITMAP
000000
000000
001FC0
007FC0
007FC0
00FFC0
00FC00
00FC00
00FC00
00FC00
00FC00
00FC00
00FC00
00FC00
00F800
01F800
01E000
0FC000
0FC000
01E000
01F800
00F800
00FC00
00FC00
00FC00
00FC00
00FC00
00FC00
00FC00
00FC00
00FFC0
007FC0
007FC0
001FC0
000000
000000
000000
000000
000000
000000
ENDCHAR

STARTCHAR bar
ENCODING 124
SWIDTH 568 0
DWIDTH 22 0
BBX 22 40 0 -10
BITMAP
000000
000000
00FC00
00FC00
00FC00
00FC00
00FC00
00FC00
00FC00
00FC00
00FC00
00FC00
00FC00
00FC00
00FC00
00FC00
00FC00
00FC00
00FC00
00FC00
00FC00
00FC00
00FC00
00FC00
00FC00
00FC00
00FC00
00FC00
00FC00
00FC00
00FC00
00FC00
00FC00
00FC00
00FC00
00FC00
000000
000000
000000
000000
ENDCHAR

STARTCHAR braceright
ENCODING 125
SWIDTH 568 0
DWIDTH 22 0
BBX 22 40 0 -10
BITMAP
000000
000000
0FE000
0FF800
0FF800
0FFC00
00FC00
00FC00
00FC00
00FC00
00FC00
00FC00
00FC00
00FC00
007C00
007E00
001E00
000FC0
000FC0
001E00
007E00
007C00
00FC00
00FC00
00FC00
00FC00
00FC00
00FC00
00FC00
00FC00
0FFC00
0FF800
0FF800
0FE000
000000
000000
000000
000000
000000
000000
ENDCHAR

STARTCHAR asciitilde
ENCODING 126
SWIDTH 568 0
DWIDTH 22 0
BBX 22 40 0 -10
BITMAP
000000
000000
000000
000000
000000
0FC018
3FF818
3FFFF8
7FFFF0
607FF0
600FC0
000000
000000
000000
000000
000000
000000
000000
000000
000000
000000
000000
000000
000000
000000
000000
000000
000000
000000
000000
000000
000000
000000
000000
000000
000000
000000
000000
000000
000000
ENDCHAR

STARTCHAR space
ENCODING 160
SWIDTH 568 0
DWIDTH 22 0
BBX 22 40 0 -10
BITMAP
000000
000000
000000
000000
000000
000000
000000
000000
000000
000000
000000
000000
000000
000000
000000
000000
000000
000000
000000
000000
000000
000000
000000
000000
000000
000000
000000
000000
000000
000000
000000
000000
000000
000000
000000
000000
000000
000000
000000
000000
ENDCHAR

STARTCHAR Aogonek
ENCODING 161
SWIDTH 568 0
DWIDTH 22 0
BBX 22 40 0 -10
BITMAP
000000
000000
000000
000000
000000
000000
000000
000000
01FE00
01FE00
01FE00
01FE00
03FF00
03FF00
03CF00
03CF00
07CF80
078780
078780
0F87C0
0FFFC0
0FFFC0
0FFFC0
1FFFE0
1E01E0
1E01E0
7F87F8
7F87F8
7F87F8
7F87F8
0007C0
0007C0
000F80
000FBC
000FBC
000FF8
0007F0
0003E0
000000
000000
ENDCHAR

STARTCHAR afii240
ENCODING 162
SWIDTH 568 0
DWIDTH 22 0
BBX 22 40 0 -10
BITMAP
000000
000000
000000
000000
000000
000000
000000
000000
000000
000000
000000
000000
000000
1FE1F8
1FE1F8
1FE3F8
07E7E0
07EF80
07FE00
07FC00
07FE00
07FF00
07FF80
07FFC0
07E7E0
07E3F0
07E1F8
1FE0FC
1FE0FC
1FE0FC
000000
000000
000000
000000
000000
000000
000000
000000
000000
000000
ENDCHAR

STARTCHAR Rcommaaccent
ENCODING 163
SWIDTH 568 0
DWIDTH 22 0
BBX 22 40 0 -10
BITMAP
000000
000000
000000
000000
000000
000000
000000
000000
7FFF80
7FFFC0
7FFFC0
7FFFE0
1F87E0
1F87E0
1F87E0
1F87E0
1FFFC0
1FFFC0
1FFF80
1FFE00
1F9F00
1F9F00
1F8F00
1F8F80
1F8780
1F87C0
7F87F8
7F83F8
7F83F8
7F83F8
000000
00FC00
00FC00
00FC00
00FC00
003800
007000
00E000
00C000
000000
ENDCHAR

STARTCHAR currency
ENCODING 164
SWIDTH 568 0
DWIDTH 22 0
BBX 22 40 0 -10
BITMAP
000000
000000
000000
000000
000000
000000
000000
000000
000000
000000
780078
7C00F8
3E79F0
1FFFE0
0FFFC0
07FF80
0F87C0
1F87E0
1F87E0
1F87E0
1F87E0
0F87C0
07FF80
0FFFC0
1FFFE0
3E79F0
7C00F8
780078
000000
000000
000000
000000
000000
000000
000000
000000
000000
000000
000000
000000
ENDCHAR

STARTCHAR Itilde
ENCODING 165
SWIDTH 568 0
DWIDTH 22 0
BBX 22 40 0 -10
BITMAP
000000
07C060
0FF060
1FFFE0
1FFFC0
183FC0
180F00
000000
3FFFF0
3FFFF0
3FFFF0
3FFFF0
00FC00
00FC00
00FC00
00FC00
00FC00
00FC00
00FC00
00FC00
00FC00
00FC00
00FC00
00FC00
00FC00
00FC00
3FFFF0
3FFFF0
3FFFF0
3FFFF0
000000
000000
000000
000000
000000
000000
000000
000000
000000
000000
ENDCHAR

STARTCHAR Lcommaaccent
ENCODING 166
SWIDTH 568 0
DWIDTH 22 0
BBX 22 40 0 -10
BITMAP
000000
000000
000000
000000
000000
000000
000000
000000
3FF000
3FF000
3FF000
3FF000
0FC000
0FC000
0FC000
0FC000
0FC000
0FC000
0FC000
0FC000
0FC0F0
0FC0F0
0FC0F0
0FC0F0
0FC0F0
0FC0F0
3FFFF0
3FFFF0
3FFFF0
3FFFF0
000000
00FC00
00FC00
00FC00
00FC00
003800
007000
00E000
00C000
000000
ENDCHAR

STARTCHAR section
ENCODING 167
SWIDTH 568 0
DWIDTH 22 0
BBX 22 40 0 -10
BITMAP
000000
000000
000000
000000
000000
000000
000000
000000
00FFE0
03FFE0
07FFE0
07FFE0
0F81E0
1F81E0
3FE000
7FF000
79F800
78FC00
7C3F00
3E1F80
3F0FE0
1FC3F0
0FE1F0
03F0F8
01FC78
007E78
003F78
000FF0
1E07E0
1E07E0
1FFFE0
1FFFE0
1FFFE0
1FFF80
000000
000000
000000
000000
000000
000000
ENDCHAR

STARTCHAR hungarumlaut
ENCODING 168
SWIDTH 568 0
DWIDTH 22 0
BBX 22 40 0 -10
BITMAP
000000
000000
000000
00FCFC
01F9F8
03E3E0
07C7C0
0F0F00
1E1E00
000000
000000
000000
000000
000000
000000
000000
000000
000000
000000
000000
000000
000000
000000
000000
000000
000000
000000
000000
000000
000000
000000
000000
000000
000000
000000
000000
000000
000000
000000
000000
ENDCHAR

STARTCHAR Scaron
ENCODING 169
SWIDTH 568 0
DWIDTH 22 0
BBX 22 40 0 -10
BITMAP
000000
3E07C0
1F0F80
0F9F00
03FC00
01F800
00F000
000000
03F9E0
0FFDE0
1FFFE0
1FFFE0
3F03E0
3F01E0
3F01E0
3F01E0
1F8000
1FF800
0FFF00
03FFC0
007FC0
0007E0
3C07E0
3C07E0
3E07E0
3F07E0
3FFFC0
3FFFC0
3DFF80
3C7E00
000000
000000
000000
000000
000000
000000
000000
000000
000000
000000
ENDCHAR

STARTCHAR Emacron
ENCODING 170
SWIDTH 568 0
DWIDTH 22 0
BBX 22 40 0 -10
BITMAP
000000
000000
000000
0FFFC0
0FFFC0
0FFFC0
0FFFC0
000000
7FFFF8
7FFFF8
7FFFF8
7FFFF8
1F8078
1F8078
1F9E78
1F9E78
1FFE00
1FFE00
1FFE00
1FFE00
1F9E00
1F9E00
1F8078
1F8078
1F8078
1F8078
7FFFF8
7FFFF8
7FFFF8
7FFFF8
000000
000000
000000
000000
000000
000000
000000
000000
000000
000000
ENDCHAR

STARTCHAR Gcommaaccent
ENCODING 171
SWIDTH 568 0
DWIDTH 22 0
BBX 22 40 0 -10
BITMAP
000000
000000
000000
000000
000000
000000
000000
000000
01FC78
07FF78
1FFFF8
1FFFF8
3F03F8
3F00F8
3E0078
7E0078
7E0000
7E0000
7E1FF8
7E1FF8
7E1FF8
7E1FF8
7E01F8
3E01F8
3F01F8
3F01F8
1FFFF8
1FFFF0
07FFE0
01FF00
000000
00FC00
00FC00
00FC00
00FC00
003800
007000
00E000
00C000
000000
ENDCHAR

STARTCHAR afii237
ENCODING 172
SWIDTH 568 0
DWIDTH 22 0
BBX 22 40 0 -10
BITMAP
000000
000000
000000
000000
000000
000000
000000
000000
7FFFF8
7FFFF8
7FFFF8
7FFFF8
78FC78
78FC78
78FC78
00FC00
7FFFF8
7FFFF8
7FFFF8
7FFFF8
00FC00
00FC00
00FC00
00FC00
00FC00
00FC00
03FF00
03FF00
03FF00
03FF00
000000
000000
000000
000000
000000
000000
000000
000000
000000
000000
ENDCHAR

STARTCHAR hyphen
ENCODING 173
SWIDTH 568 0
DWIDTH 22 0
BBX 22 40 0 -10
BITMAP
000000
000000
000000
000000
000000
000000
000000
000000
000000
000000
000000
000000
000000
000000
000000
000000
000000
000000
000000
3FFFF0
3FFFF0
3FFFF0
3FFFF0
3FFFF0
000000
000000
000000
000000
000000
000000
000000
000000
000000
000000
000000
000000
000000
000000
000000
000000
ENDCHAR

STARTCHAR Zcaron
ENCODING 174
SWIDTH 568 0
DWIDTH 22 0
BBX 22 40 0 -10
BITMAP
000000
3E07C0
1F0F80
0F9F00
03FC00
01F800
00F000
000000
1FFFC0
1FFFC0
1FFFC0
1FFF80
1E1F80
1E1F00
1E3F00
1E3E00
007E00
007C00
00FC00
00F800
01F800
01F000
03F1E0
03E1E0
07E1E0
07C1E0
0FFFE0
0FFFE0
1FFFE0
1FFFE0
000000
000000
000000
000000
000000
000000
000000
000000
000000
000000
ENDCHAR

STARTCHAR macron
ENCODING 175
SWIDTH 568 0
DWIDTH 22 0
BBX 22 40 0 -10
BITMAP
000000
000000
000000
000000
0FFFC0
0FFFC0
0FFFC0
0FFFC0
000000
000000
000000
000000
000000
000000
000000
000000
000000
000000
000000
000000
000000
000000
000000
000000
000000
000000
000000
000000
000000
000000
000000
000000
000000
000000
000000
000000
000000
000000
000000
000000
ENDCHAR

STARTCHAR degree
ENCODING 176
SWIDTH 568 0
DWIDTH 22 0
BBX 22 40 0 -10
BITMAP
000000
000000
000000
000000
00FF00
03FFC0
03FFC0
07FFE0
0781E0
0781E0
0781E0
0781E0
03FFC0
01FF80
01FF80
007E00
000000
000000
000000
000000
000000
000000
000000
000000
000000
000000
000000
000000
000000
000000
000000
000000
000000
000000
000000
000000
000000
000000
000000
000000
ENDCHAR

STARTCHAR aogonek
ENCODING 177
SWIDTH 568 0
DWIDTH 22 0
BBX 22 40 0 -10
BITMAP
000000
000000
000000
000000
000000
000000
000000
000000
000000
000000
000000
000000
03FF80
07FFC0
1FFFE0
1FFFE0
0007E0
0007E0
07FFE0
1FFFE0
3FFFE0
3FFFE0
7E07E0
7E07E0
7E07E0
7E0FE0
7FFFF8
3FFFF8
3FF7F8
0FC7F8
0007E0
0007E0
000FC0
000FDC
000FDC
000FFC
0007FC
0001F0
000000
000000
ENDCHAR

STARTCHAR ogonek
ENCODING 178
SWIDTH 568 0
DWIDTH 22 0
BBX 22 40 0 -10
BITMAP
000000
000000
000000
000000
000000
000000
000000
000000
000000
000000
000000
000000
000000
000000
000000
000000
000000
000000
000000
000000
000000
000000
000000
000000
000000
000000
000000
000000
000000
000000
00FC00
00FC00
01F800
01F9C0
01F9C0
01FFC0
00FF80
003E00
000000
000000
ENDCHAR

STARTCHAR rcommaaccent
ENCODING 179
SWIDTH 568 0
DWIDTH 22 0
BBX 22 40 0 -10
BITMAP
000000
000000
000000
000000
000000
000000
000000
000000
000000
000000
000000
000000
7F87E0
7FBFF0
7FFFF8
7FFFF8
07F078
07E078
07E000
07E000
07E000
07E000
07E000
07E000
07E000
07E000
7FFF80
7FFF80
7FFF80
7FFF80
000000
07E000
07E000
07E000
07E000
01C000
038000
070000
060000
000000
ENDCHAR

STARTCHAR acute
ENCODING 180
SWIDTH 568 0
DWIDTH 22 0
BBX 22 40 0 -10
BITMAP
000000
000000
000000
003F00
007E00
00F800
01F000
03C000
078000
000000
000000
000000
000000
000000
000000
000000
000000
000000
000000
000000
000000
000000
000000
000000
000000
000000
000000
000000
000000
000000
000000
000000
000000
000000
000000
000000
000000
000000
000000
000000
ENDCHAR

STARTCHAR itilde
ENCODING 181
SWIDTH 568 0
DWIDTH 22 0
BBX 22 40 0 -10
BITMAP
000000
000000
000000
000000
000000
1F0180
3FC180
7FFF80
7FFF00
60FF00
603C00
000000
0FFC00
0FFC00
0FFC00
0FFC00
00FC00
00FC00
00FC00
00FC00
00FC00
00FC00
00FC00
00FC00
00FC00
00FC00
3FFFF0
3FFFF0
3FFFF0
3FFFF0
000000
000000
000000
000000
000000
000000
000000
000000
000000
000000
ENDCHAR

STARTCHAR lcommaaccent
ENCODING 182
SWIDTH 568 0
DWIDTH 22 0
BBX 22 40 0 -10
BITMAP
000000
000000
000000
000000
000000
000000
0FFC00
0FFC00
0FFC00
0FFC00
00FC00
00FC00
00FC00
00FC00
00FC00
00FC00
00FC00
00FC00
00FC00
00FC00
00FC00
00FC00
00FC00
00FC00
00FC00
00FC00
3FFFF0
3FFFF0
3FFFF0
3FFFF0
000000
00FC00
00FC00
00FC00
00FC00
003800
007000
00E000
00C000
000000
ENDCHAR

STARTCHAR caron
ENCODING 183
SWIDTH 568 0
DWIDTH 22 0
BBX 22 40 0 -10
BITMAP
000000
000000
000000
1F03E0
0F87C0
07CF80
01FE00
00FC00
007800
000000
000000
000000
000000
000000
000000
000000
000000
000000
000000
000000
000000
000000
000000
000000
000000
000000
000000
000000
000000
000000
000000
000000
000000
000000
000000
000000
000000
000000
000000
000000
ENDCHAR

STARTCHAR commaaccent
ENCODING 184
SWIDTH 568 0
DWIDTH 22 0
BBX 22 40 0 -10
BITMAP
000000
000000
000000
000000
000000
000000
000000
000000
000000
000000
000000
000000
000000
000000
000000
000000
000000
000000
000000
000000
000000
000000
000000
000000
000000
000000
000000
000000
000000
000000
000000
00FC00
00FC00
00FC00
00FC00
003800
007000
00E000
00C000
000000
ENDCHAR

STARTCHAR scaron
ENCODING 185
SWIDTH 568 0
DWIDTH 22 0
BBX 22 40 0 -10
BITMAP
000000
000000
000000
000000
000000
7C0780
3E1F00
1F3E00
07F800
03F000
01E000
000000
07F3C0
1FFBC0
1FFFC0
1FFFC0
1F83C0
1F83C0
1FC000
0FF800
0FFF00
03FFC0
007FC0
0007E0
1E07E0
1E07E0
1FFFE0
1FFFC0
1EFFC0
1E7F00
000000
000000
000000
000000
000000
000000
000000
000000
000000
000000
ENDCHAR

STARTCHAR emacron
ENCODING 186
SWIDTH 568 0
DWIDTH 22 0
BBX 22 40 0 -10
BITMAP
000000
000000
000000
000000
000000
000000
000000
0FFFC0
0FFFC0
0FFFC0
0FFFC0
000000
01FF00
07FFC0
1FFFE0
1FFFF0
3F01F0
3E00F8
7FFFF8
7FFFF8
7FFFF8
7FFFF8
7E0000
7E0000
3F0078
3F81F8
1FFFF8
1FFFF0
07FFC0
01FF00
000000
000000
000000
000000
000000
000000
000000
000000
000000
000000
ENDCHAR

STARTCHAR gcommaaccent
ENCODING 187
SWIDTH 568 0
DWIDTH 22 0
BBX 22 40 0 -10
BITMAP
000000
000000
000000
006000
00E000
01C000
038000
07E000
07E000
07E000
07E000
000000
07C7F8
1FF7F8
3FFFF8
3FFFF8
7F0FE0
7E07E0
7E07E0
7E07E0
7E07E0
7E07E0
7E07E0
7E07E0
7E07E0
7F0FE0
3FFFE0
3FFFE0
1FF7E0
07E7E0
0007E0
0007E0
0007E0
0007E0
1FFFE0
1FFFC0
1FFFC0
1FFF00
000000
000000
ENDCHAR

STARTCHAR afii253
ENCODING 188
SWIDTH 568 0
DWIDTH 22 0
BBX 22 40 0 -10
BITMAP
000000
000000
000000
000000
000000
000000
07E000
07E000
07E000
07E000
07E000
07E000
7FFFE0
7FFFE0
7FFFE0
7FFFE0
07E000
07E000
7FFFE0
7FFFE0
7FFFE0
7FFFE0
07E000
07E000
07E078
07E0F8
07FFF8
03FFF0
03FFE0
00FF80
000000
000000
000000
000000
000000
000000
000000
000000
000000
000000
ENDCHAR

STARTCHAR afii238
ENCODING 189
SWIDTH 568 0
DWIDTH 22 0
BBX 22 40 0 -10
BITMAP
000000
000000
000000
000000
000000
000000
000000
3F9F80
3FBFE0
3FFFF0
3FFFF0
1FE3F8
1FC1F8
1FC1F8
1F81F8
1F81F8
1F81F8
1F81F8
1F81F8
1F81F8
1F81F8
1F81F8
1F81F8
1F81F8
1F81F8
1F9DF8
3FBFF0
3FBFF0
3FBFE0
3F8F80
000000
000000
000000
000000
000000
000000
000000
000000
000000
000000
ENDCHAR

STARTCHAR zcaron
ENCODING 190
SWIDTH 568 0
DWIDTH 22 0
BBX 22 40 0 -10
BITMAP
000000
000000
000000
000000
000000
1F03E0
0F87C0
07CF80
01FE00
00FC00
007800
000000
1FFFE0
1FFFE0
1FFFE0
1FFFE0
1E0FC0
1E1F80
1E3F00
1E3E00
007C00
00F800
01F9E0
03F1E0
07E1E0
0FC1E0
1FFFE0
1FFFE0
1FFFE0
1FFFE0
000000
000000
000000
000000
000000
000000
000000
000000
000000
000000
ENDCHAR

STARTCHAR afii254
ENCODING 191
SWIDTH 568 0
DWIDTH 22 0
BBX 22 40 0 -10
BITMAP
000000
000000
000000
000000
000000
000000
000000
000000
000000
000000
000000
000000
000000
3FDF00
3FFFC0
3FFFE0
3FFFF0
0FE3F0
0FC3F0
0FC3F0
0FC3F0
0FC3F0
0FC3F0
0FC3F0
0FC3F0
0FC3F0
3FE3F0
3FE3F0
3FE3F0
3FE3F0
0003F0
0003F0
00FFF0
01FFE0
01FFC0
00FF00
000000
000000
000000
000000
ENDCHAR

STARTCHAR Amacron
ENCODING 192
SWIDTH 568 0
DWIDTH 22 0
BBX 22 40 0 -10
BITMAP
000000
000000
000000
0FFFC0
0FFFC0
0FFFC0
0FFFC0
000000
01FE00
01FE00
01FE00
01FE00
03FF00
03FF00
03CF00
03CF00
07CF80
078780
078780
0F87C0
0FFFC0
0FFFC0
0FFFC0
1FFFE0
1E01E0
1E01E0
7F87F8
7F87F8
7F87F8
7F87F8
000000
000000
000000
000000
000000
000000
000000
000000
000000
000000
ENDCHAR

STARTCHAR Aacute
ENCODING 193
SWIDTH 568 0
DWIDTH 22 0
BBX 22 40 0 -10
BITMAP
000000
0003F0
0007E0
000F80
001F00
003C00
007800
000000
01FE00
01FE00
01FE00
01FE00
03FF00
03FF00
03CF00
03CF00
07CF80
078780
078780
0F87C0
0FFFC0
0FFFC0
0FFFC0
1FFFE0
1E01E0
1E01E0
7F87F8
7F87F8
7F87F8
7F87F8
000000
000000
000000
000000
000000
000000
000000
000000
000000
000000
ENDCHAR

STARTCHAR Acircumflex
ENCODING 194
SWIDTH 568 0
DWIDTH 22 0
BBX 22 40 0 -10
BITMAP
000000
007800
00FC00
01FE00
07CF80
0F87C0
1F03E0
000000
01FE00
01FE00
01FE00
01FE00
03FF00
03FF00
03CF00
03CF00
07CF80
078780
078780
0F87C0
0FFFC0
0FFFC0
0FFFC0
1FFFE0
1E01E0
1E01E0
7F87F8
7F87F8
7F87F8
7F87F8
000000
000000
000000
000000
000000
000000
000000
000000
000000
000000
ENDCHAR

STARTCHAR Atilde
ENCODING 195
SWIDTH 568 0
DWIDTH 22 0
BBX 22 40 0 -10
BITMAP
000000
07C060
0FF060
1FFFE0
1FFFC0
183FC0
180F00
000000
01FE00
01FE00
01FE00
01FE00
03FF00
03FF00
03CF00
03CF00
07CF80
078780
078780
0F87C0
0FFFC0
0FFFC0
0FFFC0
1FFFE0
1E01E0
1E01E0
7F87F8
7F87F8
7F87F8
7F87F8
000000
000000
000000
000000
000000
000000
000000
000000
000000
000000
ENDCHAR

STARTCHAR Adieresis
ENCODING 196
SWIDTH 568 0
DWIDTH 22 0
BBX 22 40 0 -10
BITMAP
000000
0E01C0
1F03E0
3F87F0
3F87F0
1F03E0
0E01C0
000000
01FE00
01FE00
01FE00
01FE00
03FF00
03FF00
03CF00
03CF00
07CF80
078780
078780
0F87C0
0FFFC0
0FFFC0
0FFFC0
1FFFE0
1E01E0
1E01E0
7F87F8
7F87F8
7F87F8
7F87F8
000000
000000
000000
000000
000000
000000
000000
000000
000000
000000
ENDCHAR

STARTCHAR Aring
ENCODING 197
SWIDTH 568 0
DWIDTH 22 0
BBX 22 40 0 -10
BITMAP
00FC00
03FF00
03FF00
07FF80
078780
078780
078780
078780
03FF00
01FE00
01FE00
01FE00
03FF00
03FF00
03CF00
03CF00
07CF80
078780
078780
0F87C0
0FFFC0
0FFFC0
0FFFC0
1FFFE0
1E01E0
1E01E0
7F87F8
7F87F8
7F87F8
7F87F8
000000
000000
000000
000000
000000
000000
000000
000000
000000
000000
ENDCHAR

STARTCHAR AE
ENCODING 198
SWIDTH 568 0
DWIDTH 22 0
BBX 22 40 0 -10
BITMAP
000000
000000
000000
000000
000000
000000
000000
000000
0FFFF8
0FFFF8
0FFFF8
0FFFF8
0E7E18
1E7E18
1E7E00
1E7E00
1E7FE0
1E7FE0
1E7FE0
1E7FE0
3FFE00
3FFE00
3FFE00
3FFE00
3C7E18
3C7E18
7C7FF8
7C7FF8
7C7FF8
7C7FF8
000000
000000
000000
000000
000000
000000
000000
000000
000000
000000
ENDCHAR

STARTCHAR Iogonek
ENCODING 199
SWIDTH 568 0
DWIDTH 22 0
BBX 22 40 0 -10
BITMAP
000000
000000
000000
000000
000000
000000
000000
000000
3FFFF0
3FFFF0
3FFFF0
3FFFF0
00FC00
00FC00
00FC00
00FC00
00FC00
00FC00
00FC00
00FC00
00FC00
00FC00
00FC00
00FC00
00FC00
00FC00
3FFFF0
3FFFF0
3FFFF0
3FFFF0
00FC00
00FC00
01F800
01F9C0
01F9C0
01FFC0
00FF80
003E00
000000
000000
ENDCHAR

STARTCHAR Ccaron
ENCODING 200
SWIDTH 568 0
DWIDTH 22 0
BBX 22 40 0 -10
BITMAP
000000
1F03E0
0F87C0
07CF80
01FE00
00FC00
007800
000000
01FC78
07FF78
1FFFF8
1FFFF8
3F03F8
3F00F8
3E0078
7E0078
7E0000
7E0000
7E0000
7E0000
7E0000
7E0000
7E0000
3E0000
3F0078
3F00F8
1FFFF0
1FFFF0
07FFE0
01FF80
000000
000000
000000
000000
000000
000000
000000
000000
000000
000000
ENDCHAR

STARTCHAR Eacute
ENCODING 201
SWIDTH 568 0
DWIDTH 22 0
BBX 22 40 0 -10
BITMAP
000000
0001F8
0003F0
0007C0
000F80
001E00
003C00
000000
7FFFF8
7FFFF8
7FFFF8
7FFFF8
1F8078
1F8078
1F9E78
1F9E78
1FFE00
1FFE00
1FFE00
1FFE00
1F9E00
1F9E00
1F8078
1F8078
1F8078
1F8078
7FFFF8
7FFFF8
7FFFF8
7FFFF8
000000
000000
000000
000000
000000
000000
000000
000000
000000
000000
ENDCHAR

STARTCHAR Eogonek
ENCODING 202
SWIDTH 568 0
DWIDTH 22 0
BBX 22 40 0 -10
BITMAP
000000
000000
000000
000000
000000
000000
000000
000000
7FFFF8
7FFFF8
7FFFF8
7FFFF8
1F8078
1F8078
1F9E78
1F9E78
1FFE00
1FFE00
1FFE00
1FFE00
1F9E00
1F9E00
1F8078
1F8078
1F8078
1F8078
7FFFF8
7FFFF8
7FFFF8
7FFFF8
007E00
007E00
00FC00
00FCE0
00FCE0
00FFE0
007FC0
001F00
000000
000000
ENDCHAR

STARTCHAR Edieresis
ENCODING 203
SWIDTH 568 0
DWIDTH 22 0
BBX 22 40 0 -10
BITMAP
000000
0700E0
0F81F0
1FC3F8
1FC3F8
0F81F0
0700E0
000000
7FFFF8
7FFFF8
7FFFF8
7FFFF8
1F8078
1F8078
1F9E78
1F9E78
1FFE00
1FFE00
1FFE00
1FFE00
1F9E00
1F9E00
1F8078
1F8078
1F8078
1F8078
7FFFF8
7FFFF8
7FFFF8
7FFFF8
000000
000000
000000
000000
000000
000000
000000
000000
000000
000000
ENDCHAR

STARTCHAR Edotaccent
ENCODING 204
SWIDTH 568 0
DWIDTH 22 0
BBX 22 40 0 -10
BITMAP
000000
001C00
003E00
007F00
007F00
003E00
001C00
000000
7FFFF8
7FFFF8
7FFFF8
7FFFF8
1F8078
1F8078
1F9E78
1F9E78
1FFE00
1FFE00
1FFE00
1FFE00
1F9E00
1F9E00
1F8078
1F8078
1F8078
1F8078
7FFFF8
7FFFF8
7FFFF8
7FFFF8
000000
000000
000000
000000
000000
000000
000000
000000
000000
000000
ENDCHAR

STARTCHAR Iacute
ENCODING 205
SWIDTH 568 0
DWIDTH 22 0
BBX 22 40 0 -10
BITMAP
000000
0003F0
0007E0
000F80
001F00
003C00
007800
000000
3FFFF0
3FFFF0
3FFFF0
3FFFF0
00FC00
00FC00
00FC00
00FC00
00FC00
00FC00
00FC00
00FC00
00FC00
00FC00
00FC00
00FC00
00FC00
00FC00
3FFFF0
3FFFF0
3FFFF0
3FFFF0
000000
000000
000000
000000
000000
000000
000000
000000
000000
000000
ENDCHAR

STARTCHAR Icircumflex
ENCODING 206
SWIDTH 568 0
DWIDTH 22 0
BBX 22 40 0 -10
BITMAP
000000
003C00
007E00
00FF00
03E7C0
07C3E0
0F81F0
000000
3FFFF0
3FFFF0
3FFFF0
3FFFF0
00FC00
00FC00
00FC00
00FC00
00FC00
00FC00
00FC00
00FC00
00FC00
00FC00
00FC00
00FC00
00FC00
00FC00
3FFFF0
3FFFF0
3FFFF0
3FFFF0
000000
000000
000000
000000
000000
000000
000000
000000
000000
000000
ENDCHAR

STARTCHAR Imacron
ENCODING 207
SWIDTH 568 0
DWIDTH 22 0
BBX 22 40 0 -10
BITMAP
000000
000000
000000
0FFFC0
0FFFC0
0FFFC0
0FFFC0
000000
3FFFF0
3FFFF0
3FFFF0
3FFFF0
00FC00
00FC00
00FC00
00FC00
00FC00
00FC00
00FC00
00FC00
00FC00
00FC00
00FC00
00FC00
00FC00
00FC00
3FFFF0
3FFFF0
3FFFF0
3FFFF0
000000
000000
000000
000000
000000
000000
000000
000000
000000
000000
ENDCHAR

STARTCHAR Eth
ENCODING 208
SWIDTH 568 0
DWIDTH 22 0
BBX 22 40 0 -10
BITMAP
000000
000000
000000
000000
000000
000000
000000
000000
7FFF00
7FFFC0
7FFFE0
7FFFF0
1F83F0
1F81F8
1F81F8
1F81F8
1F81F8
7FF9F8
7FF9F8
7FF9F8
7FF9F8
1F81F8
1F81F8
1F81F8
1F81F8
1F83F0
7FFFF0
7FFFE0
7FFFC0
7FFF00
000000
000000
000000
000000
000000
000000
000000
000000
000000
000000
ENDCHAR

STARTCHAR Ncommaaccent
ENCODING 209
SWIDTH 568 0
DWIDTH 22 0
BBX 22 40 0 -10
BITMAP
000000
000000
000000
000000
000000
000000
000000
000000
7F87F8
7F87F8
7F87F8
7F87F8
1FC7E0
1FC7E0
1FE7E0
1FE7E0
1FF7E0
1FF7E0
1FBFE0
1FBFE0
1F9FE0
1F9FE0
1F8FE0
1F8FE0
1F87E0
1F87E0
7F87E0
7F87E0
7F87E0
7F87E0
000000
01F800
01F800
01F800
01F800
007000
00E000
01C000
018000
000000
ENDCHAR

STARTCHAR Omacron
ENCODING 210
SWIDTH 568 0
DWIDTH 22 0
BBX 22 40 0 -10
BITMAP
000000
000000
000000
0FFFC0
0FFFC0
0FFFC0
0FFFC0
000000
01FE00
07FF80
1FFFE0
1FFFE0
3F03F0
3F03F0
3E01F0
7E01F8
7E01F8
7E01F8
7E01F8
7E01F8
7E01F8
7E01F8
7E01F8
3E01F0
3F03F0
3F03F0
1FFFE0
1FFFE0
07FF80
01FE00
000000
000000
000000
000000
000000
000000
000000
000000
000000
000000
ENDCHAR

STARTCHAR Kcommaaccent
ENCODING 211
SWIDTH 568 0
DWIDTH 22 0
BBX 22 40 0 -10
BITMAP
000000
000000
000000
000000
000000
000000
000000
000000
7F83F8
7F83F8
7F87F8
7F87F8
1F8F80
1F8F00
1F9F00
1F9E00
1FFE00
1FFC00
1FFC00
1FFC00
1FFE00
1FFE00
1F9F00
1F9F00
1F8F80
1F8F80
7F87F8
7F87F8
7F83F8
7F83F8
000000
00FC00
00FC00
00FC00
00FC00
003800
007000
00E000
00C000
000000
ENDCHAR

STARTCHAR Ocircumflex
ENCODING 212
SWIDTH 568 0
DWIDTH 22 0
BBX 22 40 0 -10
BITMAP
000000
007800
00FC00
01FE00
07CF80
0F87C0
1F03E0
000000
01FE00
07FF80
1FFFE0
1FFFE0
3F03F0
3F03F0
3E01F0
7E01F8
7E01F8
7E01F8
7E01F8
7E01F8
7E01F8
7E01F8
7E01F8
3E01F0
3F03F0
3F03F0
1FFFE0
1FFFE0
07FF80
01FE00
000000
000000
000000
000000
000000
000000
000000
000000
000000
000000
ENDCHAR

STARTCHAR Otilde
ENCODING 213
SWIDTH 568 0
DWIDTH 22 0
BBX 22 40 0 -10
BITMAP
000000
01E030
03F830
07FFF0
0FFFE0
0C1FE0
0C0780
000000
01FE00
07FF80
1FFFE0
1FFFE0
3F03F0
3F03F0
3E01F0
7E01F8
7E01F8
7E01F8
7E01F8
7E01F8
7E01F8
7E01F8
7E01F8
3E01F0
3F03F0
3F03F0
1FFFE0
1FFFE0
07FF80
01FE00
000000
000000
000000
000000
000000
000000
000000
000000
000000
000000
ENDCHAR

STARTCHAR Odieresis
ENCODING 214
SWIDTH 568 0
DWIDTH 22 0
BBX 22 40 0 -10
BITMAP
000000
0E01C0
1F03E0
3F87F0
3F87F0
1F03E0
0E01C0
000000
01FE00
07FF80
1FFFE0
1FFFE0
3F03F0
3F03F0
3E01F0
7E01F8
7E01F8
7E01F8
7E01F8
7E01F8
7E01F8
7E01F8
7E01F8
3E01F0
3F03F0
3F03F0
1FFFE0
1FFFE0
07FF80
01FE00
000000
000000
000000
000000
000000
000000
000000
000000
000000
000000
ENDCHAR

STARTCHAR multiply
ENCODING 215
SWIDTH 568 0
DWIDTH 22 0
BBX 22 40 0 -10
BITMAP
000000
000000
000000
000000
000000
000000
000000
000000
000000
000000
000000
000000
040080
0E01C0
1F03E0
1F87E0
0FCFC0
07FF80
03FF00
01FE00
00FC00
01FE00
03FF00
07FF80
0FCFC0
1F87E0
0F03C0
060180
000000
000000
000000
000000
000000
000000
000000
000000
000000
000000
000000
000000
ENDCHAR

STARTCHAR Oslash
ENCODING 216
SWIDTH 568 0
DWIDTH 22 0
BBX 22 40 0 -10
BITMAP
000000
000000
000000
000000
000000
000000
000000
000000
01FE3C
07FFF8
1FFFF0
1FFFE0
3F03F0
3F03F0
3E07F0
7E0FF8
7E1FF8
7E3DF8
7E79F8
7E71F8
7EF1F8
7FE1F8
7FC1F8
3F81F0
3F03F0
3F03F0
1FFFE0
3FFFE0
7FFF80
F1FE00
000000
000000
000000
000000
000000
000000
000000
000000
000000
000000
ENDCHAR

STARTCHAR Uogonek
ENCODING 217
SWIDTH 568 0
DWIDTH 22 0
BBX 22 40 0 -10
BITMAP
000000
000000
000000
000000
000000
000000
000000
000000
7F87F8
7F87F8
7F87F8
7F87F8
1F87E0
1F87E0
1F87E0
1F87E0
1F87E0
1F87E0
1F87E0
1F87E0
1F87E0
1F87E0
1F87E0
1F87E0
1F87E0
1F87E0
0FFFC0
0FFFC0
07FF80
03FF00
007E00
007E00
00FC00
00FCE0
00FCE0
00FFE0
007FC0
001F00
000000
000000
ENDCHAR

STARTCHAR Uacute
ENCODING 218
SWIDTH 568 0
DWIDTH 22 0
BBX 22 40 0 -10
BITMAP
000000
0003F0
0007E0
000F80
001F00
003C00
007800
000000
7F87F8
7F87F8
7F87F8
7F87F8
1F87E0
1F87E0
1F87E0
1F87E0
1F87E0
1F87E0
1F87E0
1F87E0
1F87E0
1F87E0
1F87E0
1F87E0
1F87E0
1F87E0
0FFFC0
0FFFC0
07FF80
03FF00
000000
000000
000000
000000
000000
000000
000000
000000
000000
000000
ENDCHAR

STARTCHAR Ucircumflex
ENCODING 219
SWIDTH 568 0
DWIDTH 22 0
BBX 22 40 0 -10
BITMAP
000000
007800
00FC00
01FE00
07CF80
0F87C0
1F03E0
000000
7F87F8
7F87F8
7F87F8
7F87F8
1F87E0
1F87E0
1F87E0
1F87E0
1F87E0
1F87E0
1F87E0
1F87E0
1F87E0
1F87E0
1F87E0
1F87E0
1F87E0
1F87E0
0FFFC0
0FFFC0
07FF80
03FF00
000000
000000
000000
000000
000000
000000
000000
000000
000000
000000
ENDCHAR

STARTCHAR Udieresis
ENCODING 220
SWIDTH 568 0
DWIDTH 22 0
BBX 22 40 0 -10
BITMAP
000000
0E01C0
1F03E0
3F87F0
3F87F0
1F03E0
0E01C0
000000
7F87F8
7F87F8
7F87F8
7F87F8
1F87E0
1F87E0
1F87E0
1F87E0
1F87E0
1F87E0
1F87E0
1F87E0
1F87E0
1F87E0
1F87E0
1F87E0
1F87E0
1F87E0
0FFFC0
0FFFC0
07FF80
03FF00
000000
000000
000000
000000
000000
000000
000000
000000
000000
000000
ENDCHAR

STARTCHAR Utilde
ENCODING 221
SWIDTH 568 0
DWIDTH 22 0
BBX 22 40 0 -10
BITMAP
000000
01E030
03F830
07FFF0
0FFFE0
0C1FE0
0C0780
000000
7F87F8
7F87F8
7F87F8
7F87F8
1F87E0
1F87E0
1F87E0
1F87E0
1F87E0
1F87E0
1F87E0
1F87E0
1F87E0
1F87E0
1F87E0
1F87E0
1F87E0
1F87E0
0FFFC0
0FFFC0
07FF80
03FF00
000000
000000
000000
000000
000000
000000
000000
000000
000000
000000
ENDCHAR

STARTCHAR Umacron
ENCODING 222
SWIDTH 568 0
DWIDTH 22 0
BBX 22 40 0 -10
BITMAP
000000
000000
000000
0FFFC0
0FFFC0
0FFFC0
0FFFC0
000000
7F87F8
7F87F8
7F87F8
7F87F8
1F87E0
1F87E0
1F87E0
1F87E0
1F87E0
1F87E0
1F87E0
1F87E0
1F87E0
1F87E0
1F87E0
1F87E0
1F87E0
1F87E0
0FFFC0
0FFFC0
07FF80
03FF00
000000
000000
000000
000000
000000
000000
000000
000000
000000
000000
ENDCHAR

STARTCHAR germandbls
ENCODING 223
SWIDTH 568 0
DWIDTH 22 0
BBX 22 40 0 -10
BITMAP
000000
000000
000000
000000
000000
000000
03FFC0
0FFFE0
0FFFE0
1FFFE0
1F83E0
1F83E0
1F83E0
1F83E0
1F9FC0
1F9F80
1F9FE0
1F9FF0
1F81F0
1F81F8
1F81F8
1F81F8
1F81F8
1F81F8
1F81F8
1F81F8
7F9FF8
7F9FF0
7F9FF0
7F9FC0
000000
000000
000000
000000
000000
000000
000000
000000
000000
000000
ENDCHAR

STARTCHAR amacron
ENCODING 224
SWIDTH 568 0
DWIDTH 22 0
BBX 22 40 0 -10
BITMAP
000000
000000
000000
000000
000000
000000
000000
0FFFC0
0FFFC0
0FFFC0
0FFFC0
000000
03FF80
07FFC0
1FFFE0
1FFFE0
0007E0
0007E0
07FFE0
1FFFE0
3FFFE0
3FFFE0
7E07E0
7E07E0
7E07E0
7E0FE0
7FFFF8
3FFFF8
3FF7F8
0FC7F8
000000
000000
000000
000000
000000
000000
000000
000000
000000
000000
ENDCHAR

STARTCHAR aacute
ENCODING 225
SWIDTH 568 0
DWIDTH 22 0
BBX 22 40 0 -10
BITMAP
000000
000000
000000
000000
000000
0003F0
0007E0
000F80
001F00
003C00
007800
000000
03FF80
07FFC0
1FFFE0
1FFFE0
0007E0
0007E0
07FFE0
1FFFE0
3FFFE0
3FFFE0
7E07E0
7E07E0
7E07E0
7E0FE0
7FFFF8
3FFFF8
3FF7F8
0FC7F8
000000
000000
000000
000000
000000
000000
000000
000000
000000
000000
ENDCHAR

STARTCHAR acircumflex
ENCODING 226
SWIDTH 568 0
DWIDTH 22 0
BBX 22 40 0 -10
BITMAP
000000
000000
000000
000000
000000
007800
00FC00
01FE00
07CF80
0F87C0
1F03E0
000000
03FF80
07FFC0
1FFFE0
1FFFE0
0007E0
0007E0
07FFE0
1FFFE0
3FFFE0
3FFFE0
7E07E0
7E07E0
7E07E0
7E0FE0
7FFFF8
3FFFF8
3FF7F8
0FC7F8
000000
000000
000000
000000
000000
000000
000000
000000
000000
000000
ENDCHAR

STARTCHAR atilde
ENCODING 227
SWIDTH 568 0
DWIDTH 22 0
BBX 22 40 0 -10
BITMAP
000000
000000
000000
000000
000000
03E030
07F830
0FFFF0
0FFFE0
0C1FE0
0C0780
000000
03FF80
07FFC0
1FFFE0
1FFFE0
0007E0
0007E0
07FFE0
1FFFE0
3FFFE0
3FFFE0
7E07E0
7E07E0
7E07E0
7E0FE0
7FFFF8
3FFFF8
3FF7F8
0FC7F8
000000
000000
000000
000000
000000
000000
000000
000000
000000
000000
ENDCHAR

STARTCHAR adieresis
ENCODING 228
SWIDTH 568 0
DWIDTH 22 0
BBX 22 40 0 -10
BITMAP
000000
000000
000000
000000
000000
0E01C0
1F03E0
3F87F0
3F87F0
1F03E0
0E01C0
000000
03FF80
07FFC0
1FFFE0
1FFFE0
0007E0
0007E0
07FFE0
1FFFE0
3FFFE0
3FFFE0
7E07E0
7E07E0
7E07E0
7E0FE0
7FFFF8
3FFFF8
3FF7F8
0FC7F8
000000
000000
000000
000000
000000
000000
000000
000000
000000
000000
ENDCHAR

STARTCHAR aring
ENCODING 229
SWIDTH 568 0
DWIDTH 22 0
BBX 22 40 0 -10
BITMAP
000000
000000
000000
03FF00
07FF80
0FCFC0
0F87C0
0F87C0
0FCFC0
07FF80
03FF00
000000
03FF80
07FFC0
1FFFE0
1FFFE0
0007E0
0007E0
07FFE0
1FFFE0
3FFFE0
3FFFE0
7E07E0
7E07E0
7E07E0
7E0FE0
7FFFF8
3FFFF8
3FF7F8
0FC7F8
000000
000000
000000
000000
000000
000000
000000
000000
000000
000000
ENDCHAR

STARTCHAR ae
ENCODING 230
SWIDTH 568 0
DWIDTH 22 0
BBX 22 40 0 -10
BITMAP
000000
000000
000000
000000
000000
000000
000000
000000
000000
000000
000000
000000
1FC3E0
1FF7F0
1FFFF8
1FFFF8
007C78
007C78
0FFFF8
3FFFF8
3FFFF8
7FFFF8
787C00
787C00
787C38
787C38
7FFFF8
3FFFF8
3FEFF0
0F87E0
000000
000000
000000
000000
000000
000000
000000
000000
000000
000000
ENDCHAR

STARTCHAR iogonek
ENCODING 231
SWIDTH 568 0
DWIDTH 22 0
BBX 22 40 0 -10
BITMAP
000000
000000
000000
000000
000000
000000
000000
000000
000000
000000
000000
000000
0FFC00
0FFC00
0FFC00
0FFC00
00FC00
00FC00
00FC00
00FC00
00FC00
00FC00
00FC00
00FC00
00FC00
00FC00
3FFFF0
3FFFF0
3FFFF0
3FFFF0
00FC00
00FC00
01F800
01F9C0
01F9C0
01FFC0
00FF80
003E00
000000
000000
ENDCHAR

STARTCHAR ccaron
ENCODING 232
SWIDTH 568 0
DWIDTH 22 0
BBX 22 40 0 -10
BITMAP
000000
000000
000000
000000
000000
1F03E0
0F87C0
07CF80
01FE00
00FC00
007800
000000
01FC78
07FF78
0FFFF8
1FFFF8
3F81F8
3F00F8
7F0078
7E0078
7E0000
7E0000
7E0000
7F0000
3F0038
3FC0F8
1FFFF8
0FFFF0
07FFC0
01FF00
000000
000000
000000
000000
000000
000000
000000
000000
000000
000000
ENDCHAR

STARTCHAR eacute
ENCODING 233
SWIDTH 568 0
DWIDTH 22 0
BBX 22 40 0 -10
BITMAP
000000
000000
000000
000000
000000
0003F0
0007E0
000F80
001F00
003C00
007800
000000
01FF00
07FFC0
1FFFE0
1FFFF0
3F01F0
3E00F8
7FFFF8
7FFFF8
7FFFF8
7FFFF8
7E0000
7E0000
3F0078
3F81F8
1FFFF8
1FFFF0
07FFC0
01FF00
000000
000000
000000
000000
000000
000000
000000
000000
000000
000000
ENDCHAR

STARTCHAR eogonek
ENCODING 234
SWIDTH 568 0
DWIDTH 22 0
BBX 22 40 0 -10
BITMAP
000000
000000
000000
000000
000000
000000
000000
000000
000000
000000
000000
000000
01FF00
07FFC0
1FFFE0
1FFFF0
3F01F0
3E00F8
7FFFF8
7FFFF8
7FFFF8
7FFFF8
7E0000
7E0000
3F0078
3F81F8
1FFFF8
1FFFF0
07FFC0
01FF00
00FC00
00FC00
01F800
01F9C0
01F9C0
01FFC0
00FF80
003E00
000000
000000
ENDCHAR

STARTCHAR edieresis
ENCODING 235
SWIDTH 568 0
DWIDTH 22 0
BBX 22 40 0 -10
BITMAP
000000
000000
000000
000000
000000
0700E0
0F81F0
1FC3F8
1FC3F8
0F81F0
0700E0
000000
01FF00
07FFC0
1FFFE0
1FFFF0
3F01F0
3E00F8
7FFFF8
7FFFF8
7FFFF8
7FFFF8
7E0000
7E0000
3F0078
3F81F8
1FFFF8
1FFFF0
07FFC0
01FF00
000000
000000
000000
000000
000000
000000
000000
000000
000000
000000
ENDCHAR

STARTCHAR edotaccent
ENCODING 236
SWIDTH 568 0
DWIDTH 22 0
BBX 22 40 0 -10
BITMAP
000000
000000
000000
000000
000000
001C00
003E00
007F00
007F00
003E00
001C00
000000
01FF00
07FFC0
1FFFE0
1FFFF0
3F01F0
3E00F8
7FFFF8
7FFFF8
7FFFF8
7FFFF8
7E0000
7E0000
3F0078
3F81F8
1FFFF8
1FFFF0
07FFC0
01FF00
000000
000000
000000
000000
000000
000000
000000
000000
000000
000000
ENDCHAR

STARTCHAR iacute
ENCODING 237
SWIDTH 568 0
DWIDTH 22 0
BBX 22 40 0 -10
BITMAP
000000
000000
000000
000000
0007F0
000FC0
001F00
003E00
007800
00F000
000000
000000
0FFC00
0FFC00
0FFC00
0FFC00
00FC00
00FC00
00FC00
00FC00
00FC00
00FC00
00FC00
00FC00
00FC00
00FC00
3FFFF0
3FFFF0
3FFFF0
3FFFF0
000000
000000
000000
000000
000000
000000
000000
000000
000000
000000
ENDCHAR

STARTCHAR icircumflex
ENCODING 238
SWIDTH 568 0
DWIDTH 22 0
BBX 22 40 0 -10
BITMAP
000000
000000
000000
000000
000000
007800
00FC00
01FE00
07CF80
0F87C0
1F03E0
000000
0FFC00
0FFC00
0FFC00
0FFC00
00FC00
00FC00
00FC00
00FC00
00FC00
00FC00
00FC00
00FC00
00FC00
00FC00
3FFFF0
3FFFF0
3FFFF0
3FFFF0
000000
000000
000000
000000
000000
000000
000000
000000
000000
000000
ENDCHAR

STARTCHAR imacron
ENCODING 239
SWIDTH 568 0
DWIDTH 22 0
BBX 22 40 0 -10
BITMAP
000000
000000
000000
000000
000000
000000
000000
0FFFC0
0FFFC0
0FFFC0
0FFFC0
000000
0FFC00
0FFC00
0FFC00
0FFC00
00FC00
00FC00
00FC00
00FC00
00FC00
00FC00
00FC00
00FC00
00FC00
00FC00
3FFFF0
3FFFF0
3FFFF0
3FFFF0
000000
000000
000000
000000
000000
000000
000000
000000
000000
000000
ENDCHAR

STARTCHAR dcroat
ENCODING 240
SWIDTH 568 0
DWIDTH 22 0
BBX 22 40 0 -10
BITMAP
000000
000000
000000
000000
000000
000000
007FE0
007FFC
007FFC
007FFC
007FFC
0007E0
07C7E0
1FF7E0
3FFFE0
3FFFE0
7F0FE0
7E07E0
7E07E0
7E07E0
7E07E0
7E07E0
7E07E0
7E07E0
7E07E0
7F0FE0
3FFFF8
3FFFF8
1FF7F8
07E7F8
000000
000000
000000
000000
000000
000000
000000
000000
000000
000000
ENDCHAR

STARTCHAR ncommaaccent
ENCODING 241
SWIDTH 568 0
DWIDTH 22 0
BBX 22 40 0 -10
BITMAP
000000
000000
000000
000000
000000
000000
000000
000000
000000
000000
000000
000000
7F8F80
7FBFC0
7FFFE0
7FFFE0
1FC7E0
1F87E0
1F87E0
1F87E0
1F87E0
1F87E0
1F87E0
1F87E0
1F87E0
1F87E0
7F87F8
7F87F8
7F87F8
7F87F8
000000
00FC00
00FC00
00FC00
00FC00
003800
00E000
01C000
018000
000000
ENDCHAR

STARTCHAR omacron
ENCODING 242
SWIDTH 568 0
DWIDTH 22 0
BBX 22 40 0 -10
BITMAP
000000
000000
000000
000000
000000
000000
000000
0FFFC0
0FFFC0
0FFFC0
0FFFC0
000000
01FE00
07FF80
1FFFE0
1FFFE0
3F03F0
3F03F0
7E01F8
7E01F8
7E01F8
7E01F8
7E01F8
7E01F8
3F03F0
3F03F0
1FFFE0
1FFFE0
07FF80
01FE00
000000
000000
000000
000000
000000
000000
000000
000000
000000
000000
ENDCHAR

STARTCHAR kcommaaccent
ENCODING 243
SWIDTH 568 0
DWIDTH 22 0
BBX 22 40 0 -10
BITMAP
000000
000000
000000
000000
000000
000000
7F8000
7F8000
7F8000
7F8000
1F8000
1F8000
1F87F8
1F87F8
1F87F8
1F8FF8
1F9F00
1FBE00
1FFC00
1FFC00
1FFE00
1FFE00
1FDF00
1F9F00
1F8F80
1F8F80
7F87F0
7F87F0
7F83F0
7F83F0
000000
00FC00
00FC00
00FC00
00FC00
003800
007000
00E000
00C000
000000
ENDCHAR

STARTCHAR ocircumflex
ENCODING 244
SWIDTH 568 0
DWIDTH 22 0
BBX 22 40 0 -10
BITMAP
000000
000000
000000
000000
000000
007800
00FC00
01FE00
07CF80
0F87C0
1F03E0
000000
01FE00
07FF80
1FFFE0
1FFFE0
3F03F0
3F03F0
7E01F8
7E01F8
7E01F8
7E01F8
7E01F8
7E01F8
3F03F0
3F03F0
1FFFE0
1FFFE0
07FF80
01FE00
000000
000000
000000
000000
000000
000000
000000
000000
000000
000000
ENDCHAR

STARTCHAR otilde
ENCODING 245
SWIDTH 568 0
DWIDTH 22 0
BBX 22 40 0 -10
BITMAP
000000
000000
000000
000000
000000
07C060
0FF060
1FFFE0
1FFFC0
183FC0
180F00
000000
01FE00
07FF80
1FFFE0
1FFFE0
3F03F0
3F03F0
7E01F8
7E01F8
7E01F8
7E01F8
7E01F8
7E01F8
3F03F0
3F03F0
1FFFE0
1FFFE0
07FF80
01FE00
000000
000000
000000
000000
000000
000000
000000
000000
000000
000000
ENDCHAR

STARTCHAR odieresis
ENCODING 246
SWIDTH 568 0
DWIDTH 22 0
BBX 22 40 0 -10
BITMAP
000000
000000
000000
000000
000000
0E01C0
1F03E0
3F87F0
3F87F0
1F03E0
0E01C0
000000
01FE00
07FF80
1FFFE0
1FFFE0
3F03F0
3F03F0
7E01F8
7E01F8
7E01F8
7E01F8
7E01F8
7E01F8
3F03F0
3F03F0
1FFFE0
1FFFE0
07FF80
01FE00
000000
000000
000000
000000
000000
000000
000000
000000
000000
000000
ENDCHAR

STARTCHAR divide
ENCODING 247
SWIDTH 568 0
DWIDTH 22 0
BBX 22 40 0 -10
BITMAP
000000
000000
000000
000000
000000
000000
000000
000000
000000
000000
007800
00FC00
01FE00
01FE00
00FC00
007800
000000
000000
7FFFF8
7FFFF8
7FFFF8
7FFFF8
000000
000000
007800
00FC00
01FE00
01FE00
00FC00
007800
000000
000000
000000
000000
000000
000000
000000
000000
000000
000000
ENDCHAR

STARTCHAR oslash
ENCODING 248
SWIDTH 568 0
DWIDTH 22 0
BBX 22 40 0 -10
BITMAP
000000
000000
000000
000000
000000
000000
000000
000000
000000
000000
000000
000000
01FE78
07FFF0
1FFFF0
1FFFE0
3F03F0
3F07F0
7E0FF8
7E1FF8
7E3DF8
7E79F8
7EF1F8
7FE1F8
3FC3F0
3FC3F0
1FFFE0
3FFFE0
7FFF80
F1FE00
000000
000000
000000
000000
000000
000000
000000
000000
000000
000000
ENDCHAR

STARTCHAR uogonek
ENCODING 249
SWIDTH 568 0
DWIDTH 22 0
BBX 22 40 0 -10
BITMAP
000000
000000
000000
000000
000000
000000
000000
000000
000000
000000
000000
000000
7F9FE0
7F9FE0
7F9FE0
7F9FE0
1F87E0
1F87E0
1F87E0
1F87E0
1F87E0
1F87E0
1F87E0
1F87E0
1F87E0
1F8FE0
1FFFF8
0FFFF8
0FF7F8
03E7F8
000FC0
000FC0
001F80
001F9C
001F9C
001FFC
000FF8
0003E0
000000
000000
ENDCHAR

STARTCHAR uacute
ENCODING 250
SWIDTH 568 0
DWIDTH 22 0
BBX 22 40 0 -10
BITMAP
000000
000000
000000
000000
000000
0007E0
000FC0
001F00
003E00
007800
00F000
000000
7F9FE0
7F9FE0
7F9FE0
7F9FE0
1F87E0
1F87E0
1F87E0
1F87E0
1F87E0
1F87E0
1F87E0
1F87E0
1F87E0
1F8FE0
1FFFF8
0FFFF8
0FF7F8
03E7F8
000000
000000
000000
000000
000000
000000
000000
000000
000000
000000
ENDCHAR

STARTCHAR ucircumflex
ENCODING 251
SWIDTH 568 0
DWIDTH 22 0
BBX 22 40 0 -10
BITMAP
000000
000000
000000
000000
000000
007800
00FC00
01FE00
07CF80
0F87C0
1F03E0
000000
7F9FE0
7F9FE0
7F9FE0
7F9FE0
1F87E0
1F87E0
1F87E0
1F87E0
1F87E0
1F87E0
1F87E0
1F87E0
1F87E0
1F8FE0
1FFFF8
0FFFF8
0FF7F8
03E7F8
000000
000000
000000
000000
000000
000000
000000
000000
000000
000000
ENDCHAR

STARTCHAR udieresis
ENCODING 252
SWIDTH 568 0
DWIDTH 22 0
BBX 22 40 0 -10
BITMAP
000000
000000
000000
000000
000000
1C0380
3E07C0
7F0FE0
7F0FE0
3E07C0
1C0380
000000
7F9FE0
7F9FE0
7F9FE0
7F9FE0
1F87E0
1F87E0
1F87E0
1F87E0
1F87E0
1F87E0
1F87E0
1F87E0
1F87E0
1F8FE0
1FFFF8
0FFFF8
0FF7F8
03E7F8
000000
000000
000000
000000
000000
000000
000000
000000
000000
000000
ENDCHAR

STARTCHAR utilde
ENCODING 253
SWIDTH 568 0
DWIDTH 22 0
BBX 22 40 0 -10
BITMAP
000000
000000
000000
000000
000000
07C060
0FF060
1FFFE0
1FFFC0
183FC0
180F00
000000
7F9FE0
7F9FE0
7F9FE0
7F9FE0
1F87E0
1F87E0
1F87E0
1F87E0
1F87E0
1F87E0
1F87E0
1F87E0
1F87E0
1F8FE0
1FFFF8
0FFFF8
0FF7F8
03E7F8
000000
000000
000000
000000
000000
000000
000000
000000
000000
000000
ENDCHAR

STARTCHAR umacron
ENCODING 254
SWIDTH 568 0
DWIDTH 22 0
BBX 22 40 0 -10
BITMAP
000000
000000
000000
000000
000000
000000
000000
0FFFC0
0FFFC0
0FFFC0
0FFFC0
000000
7F9FE0
7F9FE0
7F9FE0
7F9FE0
1F87E0
1F87E0
1F87E0
1F87E0
1F87E0
1F87E0
1F87E0
1F87E0
1F87E0
1F8FE0
1FFFF8
0FFFF8
0FF7F8
03E7F8
000000
000000
000000
000000
000000
000000
000000
000000
000000
000000
ENDCHAR

STARTCHAR dotaccent
ENCODING 255
SWIDTH 568 0
DWIDTH 22 0
BBX 22 40 0 -10
BITMAP
000000
000000
000000
007800
00FC00
01FE00
01FE00
00FC00
007800
000000
000000
000000
000000
000000
000000
000000
000000
000000
000000
000000
000000
000000
000000
000000
000000
000000
000000
000000
000000
000000
000000
000000
000000
000000
000000
000000
000000
000000
000000
000000
ENDCHAR
ENDFONT
